<?xml version="1.0" encoding="UTF-8"?>
<!-- Generated by Pixelmator Pro 3.7.1 -->
<svg width="2500" height="2500" viewBox="0 0 2500 2500" xmlns="http://www.w3.org/2000/svg">
    <g id="Design">
        <path id="Path" fill="#81a000" stroke="none" opacity="0.16" d="M 2205.541016 1781.187988 C 2205.541016 1856.035278 2104.582031 1927.817017 1924.874023 1980.742065 C 1745.166016 2033.666992 1501.429565 2063.399902 1247.284058 2063.399902 C 993.138428 2063.399902 749.402039 2033.666992 569.69397 1980.742065 C 389.985931 1927.817017 289.027008 1856.035278 289.027008 1781.187988 C 289.027008 1706.340698 389.985931 1634.55896 569.69397 1581.634033 C 749.402039 1528.708984 993.138428 1498.975952 1247.284058 1498.975952 C 1501.429565 1498.975952 1745.166016 1528.708984 1924.874023 1581.634033 C 2104.582031 1634.55896 2205.541016 1706.340698 2205.541016 1781.187988 Z"/>
        <path id="path1" fill="#90b700" stroke="none" d="M 2285.165039 1496.44397 C 2282.353027 1482.332031 2279.896973 1468.239014 2279.014893 1454.168945 C 2275.739014 1401.94397 2263.60498 1358.340942 2239.509033 1310.990967 C 2236.261963 1304.610962 2227.672119 1299.438965 2220.444092 1300.05603 C 2192.562988 1302.436035 2164.691895 1304.910034 2136.787109 1307.000977 C 2121.903076 1308.115967 2107.013916 1309.156982 2092.118896 1310.120972 C 2087.914063 1310.394043 2079.420898 1309.511963 2073.724121 1310.355957 C 2079.957031 1285.682983 2085.693115 1260.490967 2093.816895 1236.421997 C 2096.670898 1227.964966 2099.778076 1219.562988 2104.941895 1212.17395 C 2106.813965 1209.494995 2113.537109 1203.948975 2111.179932 1203.592041 C 2133.386963 1206.963989 2155.577881 1185.67395 2142.125977 1163.338013 C 2127.146973 1138.468994 2112.565918 1113.043945 2101.148926 1086.310059 C 2089.748047 1059.61499 2082.547119 1031.371948 2071.740967 1004.456055 C 2048.875 947.498047 2005.470947 902.664063 1964.218018 858.376953 C 1924.402954 815.634033 1883.454956 768.898926 1834.034058 736.981934 C 1807.73999 720.000977 1777.838013 710.468994 1747.901001 702.164063 C 1718.255005 693.939941 1688.546997 685.88208 1658.670044 678.533936 C 1629.759033 671.424072 1600.921997 665.281982 1571.557983 661.202026 C 1509.267944 645.169922 1445.411987 636.218994 1380.561035 638.085938 C 1249.999023 641.844971 1118.676025 693.312988 1029.400024 790.411987 C 1007.03302 814.739014 987.124023 841.73999 971.440002 870.855957 C 963.585022 885.437012 957.434021 901.033936 952.307983 916.776978 C 948.760986 927.668945 945.05603 938.988037 943.616028 950.442017 C 940.369995 952.046021 937.77301 954.908936 936.840027 959.265991 C 934.507996 970.155029 912.700012 965.327026 904.645996 964.676025 C 882.401978 962.879028 860.489014 961.034912 838.122009 961.651001 C 791.513 962.934082 748.098022 973.208984 703.453979 985.286987 C 629.109985 1005.401001 557.419983 1037.771973 491.463013 1077.389038 C 364.393005 1153.713989 258.902008 1264.452026 198.209 1400.748047 C 180.130997 1441.347046 165.774002 1483.717041 165.710007 1528.647949 C 165.653 1569.140015 174.322998 1610.447998 187.934998 1648.482056 C 213.136993 1718.904053 255.337997 1783.266968 312.444 1831.917969 C 378.285004 1888.010986 458.609985 1916.928955 540.526001 1940.927979 C 631.596008 1967.609009 724.476013 1982.254028 817.562012 1956.521973 C 861.062988 1944.496948 902.656982 1926.202026 943.377014 1906.962036 C 982.354004 1888.546021 1021.499023 1870 1058.235962 1847.343018 C 1094.280029 1825.113037 1116.369019 1798.010986 1144.593994 1766.368042 C 1159.025024 1750.189941 1183.553955 1733.499023 1196.149048 1715.862061 C 1202.265991 1707.296021 1208.26001 1698.623047 1213.863037 1689.712036 C 1216.446045 1685.604004 1218.937988 1681.438965 1221.46106 1677.293945 C 1221.598999 1677.067993 1222.18103 1676.265991 1222.811035 1675.353027 C 1235.46106 1680.624023 1265.217041 1675.56897 1274.779053 1679.084961 C 1281.956055 1690.310059 1299.51001 1718.569946 1308.535034 1728.394043 C 1323.30603 1744.470947 1338.510986 1760.279053 1355.373047 1774.17395 C 1390.667969 1803.260986 1428.093018 1829.776001 1467.619019 1852.807007 C 1545.541992 1898.21106 1631.447021 1931.453003 1719.920044 1949.125 C 1820.499023 1969.214966 1913.463989 1952.724976 2007.378052 1906.954956 C 2049.538086 1886.407959 2098.306885 1875.892944 2133.570068 1845.180054 C 2168.174072 1815.041992 2194.374023 1779.25 2223.293945 1743.473022 C 2257.262939 1701.447998 2287.423096 1648.957031 2295.326904 1594.758057 C 2300.111084 1561.93396 2291.680908 1529.140015 2285.165039 1496.44397 Z"/>
        <path id="path2" fill="#b8e207" stroke="none" d="M 1749.359985 763.919922 C 1745.42395 759.400024 1741.026001 755.25708 1736.399048 751.543945 C 1704.577026 726.011963 1669.769043 706.791016 1627.666992 716.184082 C 1604.781006 721.290039 1577.432007 733.300049 1556.812012 750.129028 C 1534.218994 754.541016 1515.409058 767.786011 1514.352051 792.999023 C 1513.686035 808.87207 1520.152954 825.374023 1530.707031 838.281982 C 1536.880005 851.953979 1547.212036 864.281006 1560.166016 873.953979 C 1593.235962 898.645996 1638.379028 909.965088 1679.258057 909.119019 C 1717.293945 908.332031 1762.536011 897.995972 1780.619019 860.51001 C 1797.682007 825.137939 1780.702026 784.671997 1749.359985 763.919922 Z"/>
        <path id="path3" fill="#b8e207" stroke="none" d="M 1505.630981 761.729004 C 1503.838989 756.192017 1500.407959 750.849976 1495.11499 748.052979 C 1493.292969 747.283936 1491.470947 746.515015 1489.649048 745.745972 C 1485.959961 744.755005 1482.270996 744.711914 1478.583008 745.523926 C 1477.05603 745.749023 1475.547974 746.046021 1474.053955 746.491943 C 1473.708984 746.594971 1473.357056 746.640991 1473.014038 746.72998 C 1469.753052 747.140015 1466.66394 748.179932 1463.751953 749.869019 C 1462.098999 751.145996 1460.446045 752.422974 1458.792969 753.699951 C 1453.098999 758.927002 1451.061035 766.890991 1452.053955 774.282959 C 1452.947021 780.932983 1455.959961 786.163086 1461.272949 790.268066 C 1467.166016 794.821045 1475.282959 797.080078 1482.633057 794.654053 C 1491.128052 791.849976 1498.891968 787.523926 1503.324951 779.361084 C 1506.19397 774.457031 1507.411011 767.229004 1505.630981 761.729004 Z"/>
        <path id="path4" fill="#b8e207" stroke="none" d="M 1852.791016 831.817017 C 1839.14502 831.817017 1839.121948 853.025024 1852.791016 853.025024 C 1866.437012 853.025024 1866.458984 831.817017 1852.791016 831.817017 Z"/>
        <path id="path5" fill="#81a000" stroke="none" d="M 2072.055908 1238.245972 C 2070.930908 1230.946045 2060.488037 1229.094971 2055.876953 1233.974976 C 1991.307007 1302.30896 1885.198975 1322.237061 1795.756958 1329.745972 C 1706.314941 1337.255005 1615.93103 1337.175049 1526.327026 1329.67395 C 1525.965942 1329.572021 1525.605957 1329.483032 1525.244995 1329.380005 C 1505.699951 1323.775024 1486.067993 1317.963989 1466.845947 1311.313965 C 1430.927979 1298.887939 1396.25 1287.159058 1362.932007 1268.453979 C 1332.000977 1251.088989 1303.724976 1231.171021 1279.41394 1205.166992 C 1267.432983 1192.352051 1256.612061 1179.19397 1246.271973 1165.052979 C 1235.55896 1150.401978 1221.991943 1138.349976 1211.584961 1123.29895 C 1206.850952 1116.453003 1194.58606 1118.333984 1194.912964 1127.814941 C 1195.535034 1145.901978 1196.723022 1166.19397 1203.006958 1183.293945 C 1209.965942 1202.232056 1222.886963 1220.767944 1235.386963 1236.447021 C 1241.649048 1244.302979 1248.369019 1251.886963 1255.447998 1259.180054 C 1256.793945 1266.834961 1259.421021 1274.160034 1262.895996 1281.427979 C 1261.051025 1280.713989 1259.203979 1280.008057 1257.36499 1279.261963 C 1251.817993 1277.012939 1248.366943 1284.936035 1251.884033 1288.677002 C 1253.668945 1290.574951 1255.524048 1292.385986 1257.411987 1294.155029 C 1256.333008 1296.685059 1256.224976 1299.760986 1257.656982 1302.911987 C 1279.73999 1351.504028 1290.003052 1400.427979 1269.005981 1451.573975 C 1262.187988 1468.180054 1281.321045 1480.636963 1295.421021 1477.989014 C 1348.01001 1468.113037 1400.125977 1455.864014 1452.911011 1447.036987 C 1505.786011 1438.194946 1558.350952 1428.46106 1610.932983 1418.016968 C 1662.439941 1407.786011 1713.713989 1396.459961 1765.042969 1385.370972 C 1817.343018 1374.071045 1868.31897 1358.328003 1921.121948 1349.302002 C 1948.254028 1344.66394 1976.052002 1343.115967 2002.911011 1336.953979 C 2014.25 1334.352051 2026.30603 1331.266968 2036.364014 1325.702026 C 2040.574951 1335.952026 2057.751953 1339.27002 2063.371094 1324.633057 C 2074.064941 1296.771973 2076.587891 1267.654053 2072.055908 1238.245972 Z M 2048.665039 1283.86499 C 2044.687012 1282.379028 2040.025024 1282.307983 2035.837036 1284.01001 C 2041.369995 1279.073975 2046.641968 1273.897949 2051.729004 1268.456055 C 2050.999023 1273.655029 2049.961914 1278.78894 2048.665039 1283.86499 Z"/>
        <path id="path6" fill="#81a000" stroke="none" d="M 979.721008 946.947998 C 974.497009 933.859009 972.072021 919.520996 967.947021 906.053955 C 966.013977 899.741943 958.002014 900.442993 955.804993 906.053955 C 951.885986 916.062012 950.913025 925.512939 951.882019 935.203979 C 948.369995 935.396973 945.020996 937.168945 943.137024 940.490967 C 939.758972 946.447998 939.010986 953.672974 941.325989 960.156006 C 943.921997 967.426025 952.773987 974.937988 960.987 972.375977 C 961.52002 972.209961 962.038025 971.980957 962.541992 971.718994 C 966.349976 978.468994 971.789001 983.676025 980.130981 983.49292 C 982.697021 983.437012 985.51001 982.112061 986.711975 979.718018 C 992.659973 967.869019 984.085022 957.879028 979.721008 946.947998 Z"/>
        <path id="path7" fill="#81a000" stroke="none" d="M 1667.008057 1941.027954 C 1646.833008 1934.519043 1627.041992 1923.359009 1608.063965 1913.777954 C 1590.55896 1904.939941 1573.17395 1895.621948 1555.979004 1886.196045 C 1538.709961 1876.72998 1522.755005 1864.749023 1506.062988 1854.303955 C 1488.66394 1843.416016 1471.902954 1831.525024 1455.208008 1819.595947 C 1392.293945 1774.64502 1340.728027 1714.042969 1305.225952 1645.36499 C 1295.583008 1626.71106 1287.81897 1607.277954 1281.083984 1587.401978 C 1273.833008 1566.003052 1269.764038 1544.119995 1261.709961 1523.042969 C 1259.312988 1516.77002 1249.520996 1515.495972 1247.651001 1523.042969 C 1245.246948 1532.73999 1244.136963 1542.761963 1244.003052 1552.91394 C 1242.932007 1552.685059 1241.845947 1552.574951 1240.767944 1552.58606 C 1240.85498 1550.671997 1240.901978 1548.751953 1240.859009 1546.822021 C 1240.725952 1540.689941 1231.442993 1537.227051 1228.509033 1543.477051 C 1221.647949 1558.095947 1217.626953 1573.614014 1211.508057 1588.546997 C 1204.27002 1606.213013 1194.489014 1622.968994 1183.95105 1638.850952 C 1174.552979 1653.015015 1164.105957 1664.785034 1152.22998 1676.873047 C 1139.724976 1689.600952 1128.333984 1703.333008 1115.417969 1715.720947 C 1087.947998 1742.067993 1056.71106 1762.577026 1024.922974 1783.307007 C 1009.159973 1793.58606 993.400024 1803.850952 977.604004 1814.05896 C 938.419983 1834.689941 897.664001 1852.262939 855.413025 1866.133057 C 833.643005 1873.280029 811.692017 1880.18396 789.61499 1886.322998 C 778.367004 1889.45105 766.97998 1892.21106 755.695007 1895.277954 C 740.005981 1896.730957 724.289978 1897.93396 708.573975 1899.057007 C 634.304016 1904.363037 559.145996 1900.52002 487.667999 1878.409058 C 452.832001 1867.633057 419.294006 1852.447021 387.901001 1833.896973 C 371.601013 1824.265991 355.45401 1813.616943 340.087006 1802.546021 C 332.859009 1797.338989 326.075012 1791.636963 319.309998 1785.854004 C 311.942993 1779.557007 303.240997 1775.67395 294.903992 1770.651978 C 290.765991 1768.159058 285.183014 1772.301025 286.628998 1777.014038 C 288.885986 1784.368042 290.687012 1792.855957 294.205994 1799.694946 C 297.963013 1806.998047 304.755005 1813.954956 309.885986 1820.36499 C 321.51001 1834.88501 333.722992 1848.395996 348.114014 1860.213013 C 376.278015 1883.339966 406.593994 1902.267944 439.929993 1917.01001 C 516.116028 1950.702026 598.598999 1964.770996 681.627014 1965.996948 C 724.880005 1966.635986 767.788025 1962.665039 810.630005 1956.973999 C 855.021973 1951.077026 897.844971 1943.175049 937.39801 1920.94397 C 973.617981 1900.587036 1006.049011 1872.269043 1038.43103 1846.41394 C 1070.364014 1820.916992 1098.21106 1792.105957 1126.797974 1763.067017 C 1137.984009 1751.703979 1148.697998 1739.906006 1158.876953 1727.646973 C 1168.203979 1718.887939 1177.046021 1709.741943 1185.114014 1700.120972 C 1198.176025 1684.545044 1209.765015 1666.238037 1219.689941 1648.055054 C 1220.130981 1649.68103 1220.612061 1651.259033 1221.118042 1652.765015 C 1226.102051 1667.594971 1236.172974 1683.654053 1254.332031 1681.464966 C 1261.07605 1680.651978 1268.55603 1678.006958 1273.703003 1673.130005 C 1286.159058 1701.605957 1301.714966 1728.322998 1320.995972 1753.18396 C 1372.892944 1820.099976 1444.08606 1878.251953 1524.598999 1906.447021 C 1546.921021 1914.264038 1568.80603 1922.463013 1591.729004 1928.394043 C 1616.310059 1934.755005 1641.741943 1937.754028 1666.126953 1944.218994 C 1668.198975 1944.772949 1669.030029 1941.68103 1667.008057 1941.027954 Z"/>
        <path id="path8" fill="#81a000" stroke="none" d="M 1255.208984 1361.239014 C 1253.93396 1358.166016 1249.311035 1359.225952 1250.095947 1362.649048 C 1256.223999 1389.343994 1250.27002 1415.265015 1253.953003 1441.792969 C 1254.327026 1444.484009 1258.194946 1444.480957 1259.404053 1442.505981 C 1274.177002 1418.36499 1265.295044 1385.55896 1255.208984 1361.239014 Z"/>
        <g id="g2">
            <path id="path9" fill="#d8e217" stroke="none" d="M 1110.401978 1126.119019 C 1048.266968 1053.375977 950.724976 1020.498047 857.52301 1015.572021 C 704.73999 1007.495972 540.802979 1070.249023 432.210999 1181.099976 C 430.776001 1182.279053 429.343994 1183.484009 427.906006 1184.714966 C 409.362 1200.597046 391.718994 1217.571045 374.774994 1235.141968 C 339.299011 1271.928955 307.156006 1312.255981 278.903015 1354.834961 C 250.832993 1397.136963 224.593994 1444.253052 216.740997 1495.06604 C 209.093994 1544.546021 217.244003 1592.770996 241.386002 1636.784058 C 288.851013 1723.31897 381.696014 1771.26001 476.610992 1784.972046 C 528.840027 1792.516968 581.16803 1792.733032 633.755005 1789.442017 C 691.692993 1785.81604 746.664978 1777.156006 800.067993 1753.689941 C 845.445007 1733.750977 887.304016 1705.780029 928.830994 1678.959961 C 967.492981 1653.98999 1005.330017 1627.582031 1040.631958 1597.996948 C 1107.567017 1541.901001 1168.880981 1466.374023 1182.137939 1377.501953 C 1195.623047 1287.102051 1169.874023 1195.744019 1110.401978 1126.119019 Z"/>
            <path id="path10" fill="#dce528" stroke="none" d="M 496.283997 1218.001953 C 496.28299 1218.004028 496.281006 1218.005981 496.279999 1218.006958 C 498.205994 1217.503052 499.106995 1217.159058 499.458008 1216.895996 C 498.453003 1217.329956 497.398987 1217.708008 496.283997 1218.001953 Z"/>
        </g>
        <path id="path11" fill="#d8e217" stroke="none" d="M 2219.089111 1313.110962 C 2212.315918 1300.91394 2195.583008 1296.902954 2183.726074 1303.838989 C 2180.993896 1305.437012 2178.773926 1307.366943 2176.980957 1309.514038 C 2172.241943 1308.678955 2167.14209 1308.68103 2161.856934 1309.415039 C 2113.560059 1316.115967 2065.827881 1325.852051 2018.786011 1338.682983 C 2008.400024 1341.515991 2002.041016 1347.855957 1999.014038 1355.396973 C 1966.95105 1360.212036 1934.840942 1364.754028 1902.777954 1369.515015 C 1808.631958 1383.494019 1714.375977 1396.883057 1620.333008 1411.537964 C 1614.362061 1412.468018 1608.401978 1413.432983 1602.45105 1414.432007 C 1570.271973 1417.944946 1538.407959 1425.79895 1507.015991 1435.137939 C 1495.46106 1438.374023 1483.97998 1441.93103 1472.577026 1445.839966 C 1452.098999 1447.848022 1431.61499 1449.805054 1411.130005 1451.70105 C 1379.563965 1454.623047 1347.253052 1455.572021 1316.723999 1464.689941 C 1299.98999 1469.687988 1298.030029 1495.641968 1315.557983 1500.744995 C 1339.958008 1544.017944 1364.800049 1586.93103 1396.115967 1625.635986 C 1428.526978 1665.69397 1460.447021 1707.36499 1500.80603 1739.864014 C 1539.178955 1770.764038 1581.979004 1796.234985 1625.338989 1819.456055 C 1669.630981 1843.176025 1716.364014 1864.178955 1765.526001 1875.400024 C 1815.61499 1886.833008 1867.240967 1888.137939 1917 1874.291016 C 1963.996948 1861.212036 2010.534058 1839.930054 2054.322021 1818.583984 C 2095.987061 1798.272949 2135.868896 1771.657959 2165.280029 1735.353027 C 2193.370117 1700.678955 2213.038086 1660.853027 2225.684082 1618.109985 C 2239.443115 1571.60498 2245.75 1522.974976 2247.662109 1474.595947 C 2249.86499 1418.807007 2246.75 1362.922974 2219.089111 1313.110962 Z"/>
        <path id="path12" fill="#f7ffae" stroke="none" d="M 1199.963013 1188.321045 C 1162.581055 1100.633057 1061.600952 1038.083984 971.90802 1006.297974 C 927.383972 990.519043 878.190002 984.525024 831.192017 989.284912 C 778.687988 994.603027 728.825989 1010.921997 679.606995 1029.22998 C 500.117004 1095.998047 315.446991 1199.522949 239.145996 1385.573975 C 231.227997 1404.880981 228.035004 1423.529053 227.740005 1443.829956 C 226.087997 1448.797974 224.526993 1453.792969 223.108002 1458.823975 C 210.395004 1503.917969 207.248001 1551.500977 218.639999 1597.194946 C 239.003006 1678.874023 302.503998 1744.030029 377.541992 1779.006958 C 465.488007 1820 564.577026 1819.785034 657.172974 1795.031982 C 680.909973 1788.686035 704.041016 1780.984009 726.721985 1772.285034 C 734.416016 1777.146973 743.320007 1775.20105 748.901001 1767.397949 C 750.078003 1765.751953 763.745972 1771.977051 764.539001 1770.165039 C 829.416992 1742.775024 883.927002 1716.715942 944.54303 1680.162964 C 1026.95105 1630.468018 1104.499023 1556.472046 1158.032959 1474.546997 C 1212.897949 1390.583008 1238.28894 1278.220947 1199.963013 1188.321045 Z M 614.921997 1108.922974 C 657.969971 1090.463989 702.190002 1073.805054 746.934021 1059.935059 C 790.992981 1046.276001 835.835022 1037.41394 882.127991 1040.876953 C 930.544006 1044.498047 978.281982 1060.880005 1019.237976 1087.427979 C 1009.315979 1090.614014 999.588013 1098.228027 991.369019 1102.988037 C 975.747009 1112.035034 960.857971 1122.537964 945.922974 1132.666992 C 916.249023 1152.791992 889.184998 1175.192017 862.304993 1198.896973 C 835.736023 1222.327026 808.515015 1245.834961 784.53302 1271.942993 C 772.781006 1284.738037 761.033997 1297.583984 749.718994 1310.77002 C 741.22699 1320.666992 729.896973 1332.18103 726.208984 1345.254028 C 725.380981 1344.732056 724.544006 1344.220947 723.68103 1343.740967 C 711.520996 1336.984985 698 1335.991943 685.297974 1339.142944 C 689.177979 1322.870972 683.484009 1302.452026 678.815002 1288.322021 C 670.969971 1264.579956 663.125977 1240.838013 655.281982 1217.097046 C 643.054016 1180.087036 630.244995 1144.224976 613.11499 1109.713989 C 613.718994 1109.453003 614.31897 1109.182007 614.921997 1108.922974 Z M 279.803986 1402.714966 C 288.22699 1383.487061 297.920013 1364.869019 308.968994 1347.015015 C 320.862 1327.796997 334.243011 1309.642944 348.764008 1292.430054 C 371.093994 1303.503052 396.588013 1309.375977 420.881989 1314.33606 C 447.233002 1319.717041 473.598999 1325.050049 499.884003 1330.744019 C 525.513977 1336.296021 551.299011 1341.58606 576.69397 1348.133057 C 588.625 1351.209961 600.22699 1351.97998 612.421997 1353.583008 C 624.905029 1355.224976 635.877991 1358.853027 648.273987 1355.436035 C 652.049011 1354.395996 653.703003 1350.029053 651.838989 1346.67395 C 645.75 1335.718018 635.91803 1330.899048 625.377014 1324.687012 C 614.903992 1318.515015 604.655029 1312.230957 593.083984 1308.396973 C 567.348999 1299.869019 540.596008 1294.296021 513.94397 1289.609985 C 487.395996 1284.942017 460.774994 1280.671021 434.169006 1276.345947 C 413.201996 1272.937988 391.016998 1269.301025 369.376007 1269.45105 C 375.040009 1263.503052 380.806 1257.645996 386.740997 1251.948975 C 443.444 1197.515991 511.416992 1156.495972 582.5 1123.41394 C 584.713989 1136.612061 587.408997 1149.706055 590.770996 1162.922974 C 596.713013 1186.286987 604.369019 1209.035034 611.820984 1231.954956 C 619.263977 1254.848022 626.70697 1277.740967 634.150024 1300.634033 C 639.401978 1316.78894 647.482971 1339.125977 662.728027 1349.720947 C 661.705017 1350.46106 660.69397 1351.218018 659.713013 1352.014038 C 647.200012 1362.166016 637.546997 1376.838989 636.653015 1392.526978 C 633.580994 1392.420044 630.489014 1392.343018 627.390015 1392.213013 C 609.684998 1391.468994 591.98999 1390.213013 574.271973 1390.675049 C 538.843018 1391.597046 503.412994 1392.182983 467.98999 1393.287964 C 433.485992 1394.364014 398.976013 1395.208008 364.460999 1395.821045 C 346.69101 1396.135986 329.010986 1397.734009 311.286987 1398.982056 C 299.880005 1399.786011 288.914001 1400.277954 279.131989 1404.187988 C 279.350006 1403.69104 279.584991 1403.213013 279.803986 1402.714966 Z M 267.072998 1431.244019 C 278.778992 1441.43396 292.910004 1442.322021 308.487 1443.08606 C 326.192993 1443.954956 343.932007 1445.186035 361.661987 1444.911987 C 398.041992 1444.352051 434.42099 1443.389038 470.786987 1442.241943 C 498.502014 1441.368042 526.179993 1439.840942 553.85199 1438.130981 C 553.367004 1438.360962 552.879028 1438.595947 552.39801 1438.821045 C 518.409973 1454.72998 484.825989 1471.504028 451.683014 1489.105957 C 418.528015 1506.714966 386.191986 1525.746948 354.276001 1545.506958 C 322.696014 1565.05896 294.343994 1588.432007 266.303986 1612.662964 C 243.589005 1555.208008 247.259003 1489.869019 267.072998 1431.244019 Z M 280.825012 1642.251953 C 278.903015 1639.031006 277.108002 1635.764038 275.382996 1632.472046 C 276.052002 1632.28894 276.720001 1632.036987 277.378998 1631.71106 C 310.330994 1615.401978 343.505005 1599.983032 375.384003 1581.619995 C 407.904999 1562.886963 440.950012 1545.051025 474.093994 1527.447998 C 506.466003 1510.255005 539.260986 1493.857056 572.439026 1478.276001 C 589.03302 1470.483032 605.79303 1463.083008 622.487976 1455.517944 C 635.754028 1449.506958 648.75 1442.636963 658.742004 1432.30603 C 663.937012 1435.506958 669.695007 1437.88501 675.671997 1439.43396 C 665.963989 1445.156006 657.177979 1451.61499 648.650024 1460.243042 C 636.531982 1472.503052 624.710999 1485.057007 612.809021 1497.524048 C 587.461975 1524.074951 563.062988 1551.48999 538.455017 1578.724976 C 489.769012 1632.607056 440.082001 1685.753052 393.088989 1741.121948 C 347.283997 1719.30896 306.93399 1686.014038 280.825012 1642.251953 Z M 459.183014 1763.89502 C 452.567993 1762.411987 445.979004 1760.708008 439.437012 1758.791016 C 484.335999 1710.60498 527.437012 1660.676025 571.223999 1611.493042 C 595.030029 1584.754028 619.080994 1558.22998 642.14801 1530.850952 C 653.896973 1516.906006 665.546021 1502.868042 677.534973 1489.126953 C 680.659973 1485.546021 683.52002 1481.938965 686.223999 1478.291992 C 686.059998 1491.739014 686.81897 1505.285034 687.228027 1518.844971 C 688.073975 1546.875977 691.598999 1574.972046 694.250977 1602.881958 C 696.908997 1630.862061 699.341003 1658.918945 702.658997 1686.829956 C 704.455994 1701.947021 707.077026 1716.979004 709.463989 1732.011963 C 709.588013 1732.791992 709.710999 1733.582031 709.835022 1734.376953 C 632.299988 1767.071045 541.276001 1782.296021 459.183014 1763.89502 Z M 856.853027 1654.68396 C 822.739014 1675.003052 788.526001 1695.620972 753.16803 1713.834961 C 752.367004 1702.954956 751.55603 1692.074951 750.320007 1681.237061 C 747.125977 1653.246948 743.69397 1625.285034 740.593994 1597.281982 C 737.484009 1569.182983 735.320984 1540.863037 730.966003 1512.926025 C 726.916016 1486.942993 724.338989 1461.244019 714.114014 1437.16394 C 716.960022 1436.072998 719.760986 1434.796997 722.478027 1433.349976 C 740.015015 1480.686035 801.906006 1496.493042 840.585022 1521.525024 C 868.184021 1539.385986 894.658997 1558.92395 922.794006 1575.962036 C 933.364014 1582.363037 944.047974 1588.764038 955.083984 1594.400024 C 922.932983 1615.426025 889.85199 1635.030029 856.853027 1654.68396 Z M 995.474976 1566.756958 C 993.763977 1565.735962 992.052979 1564.71106 990.359009 1563.660034 C 977.067993 1555.421997 963.231995 1548.108032 949.875977 1539.962036 C 922.517029 1523.275024 897.427002 1503.064941 869.963013 1486.633057 C 837.221985 1467.045044 799.396973 1456.935059 768.383972 1435.810059 C 790.728027 1447.373047 817.611023 1451.180054 842.408997 1450.651001 C 876.921021 1449.91394 911.588989 1445.369995 945.947021 1442.244995 C 981.497009 1439.01001 1016.979004 1433.978027 1052.406982 1429.602051 C 1070.009033 1427.427979 1087.105957 1424.031006 1104.344971 1419.868042 C 1114.05603 1417.521973 1123.744995 1415.438965 1133.016968 1412.300049 C 1107.511963 1476.114014 1051.187988 1526.609009 995.474976 1566.756958 Z M 1142.350952 1382.677002 C 1128.942993 1381.182007 1115.921021 1383.021973 1102.104004 1383.880005 C 1086.401978 1384.853027 1070.68396 1385.012939 1055.027954 1386.593018 C 1020.521973 1390.07605 985.893005 1392.755981 951.445984 1396.775024 C 918.453003 1400.624023 885.609985 1406.041016 852.531006 1409.131958 C 820.661011 1412.109985 791.044983 1412.446045 759.273987 1408.421997 C 756.51001 1408.072021 754.109009 1409.276001 752.35199 1411.208008 C 751.166992 1411.052979 749.239014 1411.109985 747.190979 1411.18396 C 750.327026 1406.23999 752.583984 1400.865967 753.630981 1395.177002 C 767.010986 1394.277954 780.88501 1388.805054 793.007019 1384.362061 C 809.343018 1378.374023 825.90802 1372.988037 842.002991 1366.381958 C 873.599976 1353.411987 905.551025 1341.253052 937.481995 1329.130981 C 969.481995 1316.984009 1001.780029 1305.623047 1034.337036 1295.057983 C 1050.852051 1289.698975 1069.64502 1286.041016 1084.327026 1276.390015 C 1090.339966 1272.437988 1095.121948 1266.30603 1100.145996 1261.219971 C 1107.707031 1253.567017 1114.910034 1248.953979 1124.412964 1243.817993 C 1125.839966 1243.046997 1125.214966 1240.661011 1123.577026 1240.72998 C 1114.125 1241.131958 1105.550049 1241.718018 1096.350952 1239.427002 C 1088.932983 1237.578979 1080.640991 1234.644043 1072.968018 1234.452026 C 1055.401001 1234.012939 1037.53894 1241.875 1021.158997 1247.26001 C 986.966003 1258.5 953.062988 1270.624023 919.495972 1283.613037 C 886.463013 1296.39502 854.106018 1310.759033 822.057983 1325.828003 C 806.278015 1333.248047 791.268005 1342.436035 776.213989 1351.224976 C 767.357971 1356.39502 757.546021 1362.307983 749.437988 1369.55603 C 747.655029 1366.760986 745.372986 1364.118042 742.734985 1361.93103 C 742.163025 1360.994995 741.559021 1360.078003 740.926025 1359.178955 C 752.096985 1355.410034 761.267029 1346.272949 770.258972 1338.671021 C 784.195007 1326.887939 797.55603 1314.387939 811.421021 1302.51001 C 838.450989 1279.35498 864.013 1254.51001 890.88501 1231.147949 C 917.094971 1208.362061 943.567017 1186.22998 969.026978 1162.607056 C 982.286011 1150.305054 996.119019 1138.55603 1009.11499 1125.984985 C 1017.557007 1117.81897 1030.178955 1109.427002 1034.805054 1098.269043 C 1056.006958 1114.073975 1074.994019 1132.755005 1090.761963 1153.939941 C 1138.493042 1218.072021 1160.939941 1304.05896 1142.350952 1382.677002 Z"/>
        <path id="path13" fill="#f7ffae" stroke="none" d="M 2261.60498 1506.982056 C 2260.73291 1475.354004 2256.068115 1444.791016 2248.912109 1414 C 2241.6521 1382.760986 2236.782959 1350.668945 2231.187012 1319.073975 C 2228.677979 1304.910034 2203.9021 1308.024048 2205.802002 1322.509033 C 2209.157959 1348.090942 2211.822998 1373.660034 2213.672119 1399.397949 C 2215.586914 1426.041016 2212.560059 1452.734985 2212.124023 1479.385986 C 2211.731934 1503.396973 2209.971924 1527.555054 2206.353027 1551.404053 C 2194.478027 1545.649048 2182.404053 1540.314941 2171.260986 1534.427979 C 2140.9729 1518.427002 2110.893066 1501.94397 2080.376953 1486.381958 C 2022.426025 1456.828979 1964.213989 1430.588013 1902.651001 1410.103027 C 1899.819946 1389.652954 1886.276978 1376.126953 1868.286011 1368.531006 C 1851.959961 1370.022949 1835.588989 1371.385986 1819.66394 1375.831055 C 1792.223999 1383.48999 1765.833984 1394.374023 1738.46106 1402.17395 C 1734.540039 1409.359985 1732.979004 1416.964966 1733.42395 1424.46106 C 1730.459961 1423.166016 1726.527954 1440.149048 1724.157959 1443.43103 C 1709.13501 1464.238037 1706.682007 1479.993042 1685.707031 1502.709961 C 1663.733032 1526.509033 1640.11499 1555.813965 1620.019043 1581.214966 C 1599.994995 1606.525024 1571.344971 1626.980957 1552.729004 1653.311035 C 1540.812012 1670.166016 1527.520996 1685.840942 1517.482056 1702.977051 C 1443.501953 1645.25 1365.353027 1562.376953 1309.04895 1487.479004 C 1302.625 1478.932983 1293.067993 1474.378052 1282.56604 1478.802002 C 1273.368042 1482.676025 1266.859009 1493.767944 1270.286987 1503.821045 C 1301.366943 1594.984985 1371.43396 1668.027954 1443.55603 1729.260986 C 1481.31897 1761.322021 1521.170044 1791.18396 1562.279053 1818.81604 C 1606.19397 1848.333984 1653.57605 1873.095947 1705.227051 1885.82605 C 1806.958984 1910.900024 1914.105957 1894.547974 2011.259033 1858.928955 C 2061.539063 1840.494995 2109.927002 1818.812988 2151.477051 1784.485962 C 2188.634033 1753.787964 2215.179932 1712.534058 2233.25708 1668.251953 C 2254.231934 1616.874023 2263.13208 1562.383057 2261.60498 1506.982056 Z M 1753.468994 1820.661011 C 1673.097046 1809.735962 1602.20105 1765.19104 1537.285034 1717.70105 C 1549.516968 1704.677979 1560.113037 1690.180054 1571.588013 1675.541016 C 1591.493042 1650.149048 1615.844971 1628.430054 1635.661987 1603.035034 C 1655.593994 1577.493042 1676.100952 1552.344971 1695.015015 1526.040039 C 1711.714966 1502.813965 1735.280029 1477.837036 1742.152954 1449.215942 C 1748.337036 1458.389038 1757.375 1466.063965 1767.994019 1470.692993 C 1769.421021 1471.314941 1770.901001 1471.906982 1772.421021 1472.473022 C 1770.11499 1500.557983 1769.029053 1528.33606 1769.619019 1556.80896 C 1770.359009 1592.491943 1771.098999 1628.176025 1771.838989 1663.859009 C 1772.561035 1698.656982 1774.141968 1733.33606 1775.963989 1768.092041 C 1776.94104 1786.727051 1777.855957 1804.978027 1781.248047 1823.355957 C 1771.963013 1822.791992 1762.697021 1821.915039 1753.468994 1820.661011 Z M 1841.744995 1822.564941 C 1842.180054 1816.610962 1823.286987 1813.078979 1823.48999 1807.115967 C 1824.062012 1790.337036 1824.369019 1779.019043 1823.48999 1762.255981 C 1821.665039 1727.439941 1820.003052 1694.46106 1817.081055 1659.718994 L 1812.275024 1549.171997 C 1810.984985 1533.831055 1821.904053 1517.909058 1819.633057 1502.881958 C 1820.374023 1503.734985 1821.067993 1504.541992 1821.69104 1505.287964 C 1833.637939 1519.593018 1836.391968 1489.375 1847.521973 1504.312012 C 1871.392944 1536.348999 1922.56604 1598.581055 1943.650024 1632.483032 C 1965.524048 1667.655029 1999.840942 1726.437012 2025.359009 1759.052002 C 2032.715942 1768.453979 2007.916016 1770.483032 2015.970947 1779.400024 C 1960.791992 1801.140015 1901.462036 1817.63501 1841.744995 1822.564941 Z M 2191.479004 1615.23999 C 2179.341064 1652.482056 2159.321045 1687.267944 2130.822021 1714.384033 C 2115.943115 1728.541016 2098.6521 1740.18103 2080.346924 1750.213989 C 2079.891113 1749.722046 2079.447021 1749.244995 2078.922119 1748.659058 C 2072.885986 1741.916992 2067.351074 1734.686035 2061.379883 1727.865967 C 2050.35791 1715.275024 2039.873047 1702.237061 2029.896973 1688.805054 C 2008.626953 1660.168945 1989.130005 1630.284058 1968.235962 1601.380005 C 1946.828003 1571.765015 1925.057983 1542.286011 1901.254028 1514.535034 C 1889.505981 1500.838013 1876.593994 1488.53894 1862.879028 1476.817017 C 1861.670044 1475.784058 1860.468018 1474.738037 1859.265991 1473.689941 C 1876.069946 1467.968994 1890.212036 1458.161011 1897.631958 1443.344971 C 1918.639038 1459.732056 1939.918945 1475.824951 1962.904053 1489.329956 C 1993.953003 1507.572998 2025.137939 1526.097046 2056.9729 1542.927002 C 2087.824951 1559.237061 2118.603027 1575.69397 2149.538086 1591.844971 C 2162.541992 1598.634033 2177.5979 1606.040039 2193.044922 1610.228027 C 2192.5271 1611.900024 2192.020996 1613.57605 2191.479004 1615.23999 Z"/>
        <path id="path14" fill="#f7ffae" stroke="none" d="M 836.182007 1043.881958 C 813.114014 1046.215942 798.513977 1069.401001 787.419983 1087.217041 C 773.344971 1109.821045 761.81897 1133.724976 751.775024 1158.348999 C 740.909973 1184.985962 730.406006 1211.775024 719.750977 1238.496948 C 714.203979 1252.406982 709.630981 1266.609985 704.914978 1280.819946 C 700.575012 1293.896973 697.195984 1308.619019 701.031982 1322.217041 C 702.588013 1327.732056 709.177979 1330.53894 714.174988 1327.563965 C 736.89502 1314.037964 747.388 1280.676025 756.88501 1257.437012 C 767.317017 1231.909058 777.265991 1206.177979 787.536987 1180.583984 C 796.413025 1158.465942 804.799011 1135.964966 815.119995 1114.469971 C 824.536011 1094.860962 843.150024 1072.665039 842.145996 1049.847046 C 842.015991 1046.873047 839.51001 1043.545044 836.182007 1043.881958 Z"/>
        <path id="path15" fill="#fdffca" stroke="none" d="M 1244.03894 1235.514038 C 1238.637939 1211.994019 1230.491943 1188.302979 1215.708984 1168.995972 C 1213.734985 1166.417969 1211.862061 1163.672974 1209.906982 1161.01001 C 1199.555054 1135.732056 1185.661011 1111.949951 1167.624023 1091.828979 C 1137.008057 1057.675049 1095.488037 1031.567017 1051.404053 1018.919922 C 999.031006 1003.89502 943.083008 995.702026 888.81897 991.708984 C 833.497009 987.637939 777.280029 990.488037 723.250977 1003.611084 C 673.947021 1015.586914 626.005981 1034.93103 580.315002 1056.805054 C 493.520996 1098.355957 413.621002 1154.64502 344.752991 1221.827026 C 305.627991 1259.994019 268.520996 1302.037964 238.087006 1347.545044 C 208.953003 1391.108032 187.126999 1441.670044 185.552002 1494.442017 C 179.839005 1521.589966 183.009003 1551.484985 187.880997 1577.765991 C 195.389999 1618.27002 212.279999 1657.508057 237.365005 1690.213989 C 272.070007 1735.463013 316.701996 1770.125 368.401001 1789.948975 C 369.178009 1793.135986 371.035004 1796.053955 374.18399 1797.890015 C 412.634003 1820.322021 453.520996 1828.425049 497.260986 1834.140991 C 539.361023 1839.641968 582.648987 1839.214966 624.890015 1835.574951 C 711.132996 1828.142944 795.52301 1805.573975 873.672974 1768.295044 C 912.117981 1749.956055 948.817017 1727.936035 982.922974 1702.406982 C 1021.267029 1673.704956 1054.572021 1638.162964 1087.421021 1603.475952 C 1149.385986 1538.041992 1216.977051 1467 1241.686035 1377.915039 C 1254.524048 1331.630981 1254.766968 1282.229004 1244.03894 1235.514038 Z M 1074.30603 1560.714966 C 1015.872009 1623.110962 950.455994 1677.485962 874.434021 1717.312988 C 804.648987 1753.871948 727.366028 1777.892944 649.034973 1786.70105 C 622.508972 1789.68396 595.828003 1791.051025 569.153015 1790.880981 C 559.757019 1788.571045 550.213989 1787.118042 542.255981 1785.857056 C 521.159973 1782.515015 500.27301 1783.402954 479.033997 1784.203979 C 478.438995 1784.225952 477.846008 1784.230957 477.251007 1784.25 C 449.195007 1780.692993 421.264008 1776.520996 393.050995 1774.140991 C 383.812012 1771.490967 374.683014 1768.314941 365.687988 1764.588989 C 291.666992 1733.92395 238.503998 1672.44397 218.292007 1595.050049 C 212.878006 1574.319946 209.710007 1553.223999 209.278 1531.791016 C 208.973007 1516.660034 209.796997 1501.573975 209.666 1486.505005 C 217.319 1446.090942 237.712006 1408.75 261.243988 1375.275024 C 287.51001 1337.911987 315.411011 1302.166992 346.820007 1268.953003 C 408.450012 1203.781006 480.049988 1148.51001 558.573975 1105.171021 C 643.213989 1058.457031 733.414978 1024.581055 831.122009 1024.204956 C 883.190002 1024.005005 934.883972 1030.623047 985.838989 1040.990967 C 1031.411987 1050.264038 1075.748047 1059.781006 1109.265991 1094.139038 C 1141.260986 1126.935059 1164.053955 1170.661987 1175.186035 1214.876953 C 1182.003052 1241.95105 1185.027954 1269.948975 1186.675049 1297.774048 C 1188.342041 1325.937012 1187.769043 1355.928955 1197.712036 1382.546021 C 1174.192017 1451.425049 1123.60498 1508.073975 1074.30603 1560.714966 Z"/>
        <path id="path16" fill="#fdffca" stroke="none" d="M 631.638977 1596.203979 C 627.005981 1600.854004 621.473999 1605.21106 620.703979 1612.120972 C 620.156982 1617.021973 626.289978 1619.51001 630.010986 1617.462036 C 635.711975 1614.323975 637.603027 1606.685059 639.945984 1601.040039 C 641.934021 1596.251953 634.885986 1592.944946 631.638977 1596.203979 Z"/>
        <path id="path17" fill="#fdffca" stroke="none" d="M 643.822998 1627.918945 L 641.142029 1642.003052 C 640.820007 1643.69397 643.460022 1644.366943 643.697998 1642.708008 C 644.379028 1637.953979 645.059998 1633.20105 645.741028 1628.447998 C 645.916992 1627.212036 644.065979 1626.640991 643.822998 1627.918945 Z"/>
        <path id="path18" fill="#fdffca" stroke="none" d="M 419.665009 1610.786987 C 417.147003 1609.512939 414.800995 1608.764038 412.053009 1609.81604 C 409.618011 1610.748047 407.304993 1612.537964 405.515991 1614.410034 C 401.90799 1618.187988 399.868011 1622.983032 399.61499 1628.187012 C 399.384003 1632.947021 407.312012 1634.178955 408.076996 1629.332031 C 408.562012 1626.258057 409.867004 1623.541992 412.324005 1621.545044 C 413.487 1620.599976 414.778015 1620.071045 416.11499 1619.452026 C 417.962006 1618.597046 418.886993 1617.311035 420.334991 1615.990967 C 421.848999 1614.609985 421.52301 1611.725952 419.665009 1610.786987 Z"/>
        <path id="path19" fill="#fdffca" stroke="none" d="M 451.096985 1611.686035 C 447.194 1616.45105 443.291992 1621.215942 439.390015 1625.97998 C 437.263 1628.577026 440.855988 1632.322021 443.139008 1629.729004 C 447.197998 1625.120972 451.256012 1620.511963 455.315002 1615.904053 C 457.86499 1613.006958 453.509003 1608.741943 451.096985 1611.686035 Z"/>
        <path id="path20" fill="#fdffca" stroke="none" d="M 366.776001 1483.374023 C 363.776001 1482.68103 360.93399 1481.879028 357.82901 1482.296021 C 354.988007 1482.677979 352.190002 1483.765991 349.441986 1484.578979 C 344.626007 1486.005005 341.109985 1491.395996 342.730011 1496.400024 C 344.200989 1500.94397 349.53299 1505.057007 354.550995 1503.112061 C 357.253998 1502.063965 359.979004 1501.061035 362.648987 1499.93396 C 365.696014 1498.647949 367.485992 1496.224976 369.515991 1493.756958 C 372.300995 1490.373047 371.710999 1484.514038 366.776001 1483.374023 Z"/>
        <path id="path21" fill="#fdffca" stroke="none" d="M 425.015991 1341.448975 C 423.540009 1341.222046 422.062988 1340.993042 420.588013 1340.761963 C 416.67099 1340.150024 413.162994 1340.119019 409.609009 1342.197998 C 406.653015 1343.927979 403.834015 1347.317017 403.061005 1350.713989 C 402.230011 1354.360962 402.410004 1358.456055 404.497009 1361.69397 C 405.23999 1362.655029 405.981995 1363.616943 406.725006 1364.578003 C 408.502991 1366.343994 410.598999 1367.564941 413.013 1368.241943 C 414.398987 1368.79895 415.782013 1369.363037 417.167999 1369.921997 C 425.040009 1373.095947 434.60199 1368.130981 436.835999 1360.02002 C 439.067993 1351.907959 433.398987 1342.73999 425.015991 1341.448975 Z"/>
        <path id="path22" fill="#fdffca" stroke="none" d="M 534.101013 1245.385986 C 532.919006 1243.366943 530.617004 1242.473022 528.482971 1241.834961 C 525.166992 1240.843994 521.841003 1240.840942 518.452026 1241.302002 C 514.215027 1241.876953 514.471008 1248.807007 518.452026 1249.609985 C 520.59198 1250.041992 522.401001 1250.774048 524.176025 1252.052979 C 525.231018 1252.813965 526.114014 1253.723999 527.416992 1254.081055 C 528.578003 1254.400024 529.632019 1254.189941 530.802002 1254.026978 C 531.210999 1253.969971 531.013 1253.977051 530.822998 1253.98999 C 530.940979 1253.980957 531.104004 1253.968018 531.372986 1253.946045 C 533.356995 1253.782959 534.991028 1252.407959 535.018005 1250.301025 C 535.039001 1248.661987 534.945984 1246.829956 534.101013 1245.385986 Z"/>
        <path id="path23" fill="#fdffca" stroke="none" d="M 567.754028 1218.723999 C 565.333984 1214.936035 561.494019 1212.890991 557.409973 1211.39502 C 551.33197 1209.168945 545.642029 1215.880981 547.218994 1221.58606 C 547.322998 1221.930054 547.401978 1222.280029 547.47998 1222.630981 C 547.442993 1224.118042 547.557983 1225.644043 547.940002 1227.078003 C 548.08197 1227.833984 548.359009 1228.546021 548.700989 1229.239014 C 548.739014 1229.355957 548.768982 1229.45105 548.833008 1229.63501 C 548.945007 1230.015991 549.030029 1230.402954 549.114014 1230.791016 C 549.572021 1236.255005 553.778015 1241.487061 559.710999 1241.220947 C 565.593994 1240.958008 570.18103 1236.552979 570.338989 1230.593994 C 570.440002 1226.743042 569.869019 1222.035034 567.754028 1218.723999 Z"/>
        <path id="path24" fill="#fdffca" stroke="none" d="M 708.372986 1136.697998 C 706.797974 1127.526001 691.416016 1127.52002 689.840027 1136.697998 C 688.976013 1141.729004 687.426025 1147.238037 687.635986 1152.333984 C 687.89801 1158.69397 691.872986 1165.998047 699.106995 1165.998047 C 706.052002 1165.998047 709.935974 1159.233032 710.502014 1153.151001 C 711 1147.805054 709.278992 1141.975952 708.372986 1136.697998 Z"/>
        <path id="path25" fill="#fdffca" stroke="none" d="M 735.35199 1124.369019 C 732.398987 1122.80896 728.432983 1123.546021 726.737976 1126.628052 C 725.77002 1128.387939 724.802002 1130.147949 723.833984 1131.906982 C 723.211975 1133.037964 722.421997 1134.219971 722.078003 1135.468018 C 721.742981 1136.68396 721.784973 1138.005005 721.817017 1139.253052 C 721.919983 1143.189941 726.651001 1146.713989 730.294006 1144.116943 C 731.263977 1143.426025 732.323975 1142.777954 733.14502 1141.910034 C 734.119995 1140.880005 734.549988 1139.751953 735.116028 1138.500977 L 737.611023 1132.983032 C 738.963989 1129.989014 738.570984 1126.06897 735.35199 1124.369019 Z"/>
        <path id="path26" fill="#fdffca" stroke="none" d="M 848.789001 1163.857056 C 848.067993 1161.56604 845.875977 1159.615967 843.356995 1159.720947 C 837.208984 1159.977051 835.161011 1165.284058 832.257019 1169.921997 C 829.440979 1174.417969 826.625977 1178.91394 823.809998 1183.411011 C 820.492981 1188.708008 828.653015 1195.343994 832.656982 1190.238037 C 835.914978 1186.083008 839.172974 1181.927979 842.43103 1177.774048 C 845.666992 1173.646973 850.583008 1169.553955 848.789001 1163.857056 Z"/>
        <path id="path27" fill="#fdffca" stroke="none" d="M 928.297974 1232.266968 C 925.950989 1232.047974 923.971985 1231.850952 921.702026 1232.677979 C 919.390015 1233.52002 917.440002 1235.333984 915.523987 1236.848999 C 911.900024 1239.712036 908.486023 1242.802979 905.231018 1246.078003 C 901.380005 1249.952026 906.510986 1257.227051 911.254028 1253.88501 C 914.846008 1251.354004 918.552002 1249.005981 922.411011 1246.902954 C 924.315979 1245.86499 926.427002 1245.053955 928.078003 1243.634033 C 929.836975 1242.120972 930.671997 1240.276978 931.72998 1238.251953 C 933.211975 1235.416992 931.330017 1232.54895 928.297974 1232.266968 Z"/>
        <path id="path28" fill="#fdffca" stroke="none" d="M 940.732971 1250.072021 C 936.679016 1248.72998 933.987976 1249.125 930.127014 1250.875977 C 926.68103 1252.437988 923.614014 1254.526001 920.682983 1256.901978 C 917.187988 1259.735962 921.757996 1265.636963 925.502014 1263.146973 C 928.197998 1261.353027 931.012024 1259.850952 934.103027 1258.854004 C 935.56897 1258.380981 937.065979 1258.124023 938.393005 1257.314941 C 939.666992 1256.53894 940.734985 1255.422974 941.903015 1254.500977 C 943.580994 1253.180054 942.426025 1250.631958 940.732971 1250.072021 Z"/>
        <path id="path29" fill="#fdffca" stroke="none" d="M 997.179993 1337.530029 C 994.711975 1335.625977 991.526978 1335.603027 989.051025 1337.060059 C 989.054993 1337.026001 989.059998 1336.991943 989.064026 1336.958008 C 986.780029 1338.464966 985.380005 1338.432007 982.491028 1339.645996 C 981.289001 1340.151001 979.823975 1340.599976 977.901978 1340.522949 C 971.744995 1340.276978 969.211975 1349.381958 974.723999 1352.255981 C 978.27301 1354.105957 982.189026 1355.18103 986.218994 1355.011963 C 990.828979 1354.81897 995.008972 1351.869995 997.919006 1348.436035 C 1000.734009 1345.11499 1000.848022 1340.359985 997.179993 1337.530029 Z"/>
        <path id="path30" fill="#fdffca" stroke="none" d="M 980.658997 1475.848022 C 980.002014 1471.478027 976.377014 1468.008057 971.799011 1468.025024 C 968.81897 1468.036011 965.799011 1467.891968 962.843018 1468.290039 C 959.945984 1468.678955 957.031006 1470.258057 954.320007 1471.344971 C 950.341003 1472.939941 947.465027 1476.249023 948.148987 1480.797974 C 948.797974 1485.115967 952.226013 1488.081055 956.611023 1488.267944 C 959.55603 1488.394043 962.64801 1488.801025 965.567017 1488.409058 C 968.518982 1488.011963 971.393005 1486.724976 974.197998 1485.745972 C 978.419983 1484.271973 981.35199 1480.453003 980.658997 1475.848022 Z"/>
        <path id="path31" fill="#fdffca" stroke="none" d="M 798.656006 1540.796997 C 794.054016 1535.369995 789.198975 1529.357056 782.137024 1527.418945 C 776.835022 1525.964966 771.106995 1530.107056 771.231018 1535.727051 C 771.39502 1543.168945 775.945007 1549.196045 780.117004 1555.099976 C 784.463013 1561.248047 790.929016 1565.824951 798.447021 1566.536011 C 801.161011 1566.792969 804.739014 1564.209961 805.156982 1561.427002 C 806.284973 1553.926025 803.578003 1546.599976 798.656006 1540.796997 Z"/>
        <path id="path32" fill="#fdffca" stroke="none" d="M 775.008972 1565.312012 C 772.953979 1560.956055 769.955017 1557.041016 766.468018 1553.735962 C 761.768005 1549.281006 755.317993 1555.94397 759.439026 1560.765015 C 761.812012 1563.541016 763.70697 1566.761963 764.848022 1570.239014 C 766.182983 1574.310059 766.304016 1577.292969 770.280029 1579.657959 C 771.715027 1580.510986 773.950012 1580.339966 775.098999 1579.036011 C 779 1574.609985 777.302979 1570.17395 775.008972 1565.312012 Z"/>
        <path id="path33" fill="#fdffca" stroke="none" d="M 1563.224976 1514.911011 C 1558.615967 1514.81604 1554.422974 1516.854004 1551.129028 1520.453979 C 1548.755981 1523.047974 1546.70105 1526.045044 1544.516968 1528.801025 C 1541.187988 1533.005005 1540.107056 1539.280029 1544.516968 1543.328979 C 1549.008057 1547.45105 1554.529053 1546.905029 1559.043945 1543.328979 C 1561.802002 1541.14502 1564.796997 1539.090942 1567.390991 1536.717041 C 1570.991943 1533.422974 1573.031982 1529.234009 1572.935059 1524.619995 C 1574.884033 1518.270996 1569.584961 1512.958008 1563.224976 1514.911011 Z"/>
        <path id="path34" fill="#fdffca" stroke="none" d="M 1541.310059 1491.088989 C 1536.590942 1489.660034 1531.439941 1492.06604 1528.422974 1495.655029 C 1525.937988 1498.609985 1524.020996 1501.885986 1523.186035 1505.696045 C 1522.297974 1509.75 1524.401001 1514.48999 1528.740967 1515.479004 C 1533.218018 1516.499023 1537.008057 1514.119995 1538.524048 1509.92395 C 1538.536011 1509.890991 1538.535034 1509.885986 1538.546021 1509.857056 C 1538.578003 1509.80896 1538.590942 1509.795044 1538.630981 1509.733032 C 1538.869019 1509.359009 1539.114014 1508.968994 1539.331055 1508.582031 C 1539.734985 1508.170044 1540.131958 1507.771973 1540.552002 1507.375 C 1540.698975 1507.250977 1540.847046 1507.125977 1540.994019 1507.001953 C 1540.792969 1507.152954 1540.640991 1507.27002 1540.510986 1507.369995 C 1540.786011 1506.765015 1542.241943 1506.234009 1542.831055 1505.603027 C 1543.838989 1504.520996 1545.084961 1503.245972 1545.734009 1501.962036 C 1547.916016 1497.646973 1546.08606 1492.536011 1541.310059 1491.088989 Z"/>
        <path id="path35" fill="#fdffca" stroke="none" d="M 1749.979004 1624.494019 C 1747.105957 1622.276978 1742.546997 1622.270996 1739.972046 1625.089966 C 1732.838989 1632.899048 1725.89502 1640.012939 1721.370972 1649.718018 C 1719.321045 1654.11499 1719.765991 1659.217041 1723.881958 1662.292969 C 1727.512939 1665.005981 1733.469971 1665.271973 1736.68103 1661.531006 C 1740.047974 1657.607056 1743.662964 1653.280029 1745.819946 1648.56604 C 1747.968018 1643.871948 1749.904053 1639.067993 1751.942993 1634.32605 C 1753.463013 1630.78894 1753.233032 1627.005005 1749.979004 1624.494019 Z"/>
        <path id="path36" fill="#fdffca" stroke="none" d="M 1677.703003 1622.110962 C 1674.697021 1626.925049 1671.692017 1631.739014 1668.686035 1636.552979 C 1665.730957 1641.286011 1662.81897 1648.776001 1668.984985 1652.469971 C 1674.871948 1655.996948 1679.901001 1650.151978 1682.380981 1645.496948 C 1685.177002 1640.248047 1687.660034 1634.802979 1690.291992 1629.468994 C 1694.421997 1621.105957 1682.718994 1614.078003 1677.703003 1622.110962 Z"/>
        <path id="path37" fill="#fdffca" stroke="none" d="M 1875.467041 1697.713989 C 1872.952026 1691.362061 1864.121948 1693.749023 1865.241943 1700.532959 C 1866.154053 1706.060059 1866.285034 1712.759033 1868.915039 1717.738037 C 1869.984009 1719.761963 1872.354004 1720.994019 1874.593994 1720.994995 C 1875.823975 1720.994995 1876.857056 1720.732056 1877.912964 1720.097046 C 1879.822021 1718.95105 1881.296021 1716.715942 1881.170044 1714.417969 C 1880.858032 1708.746948 1877.547974 1702.968994 1875.467041 1697.713989 Z"/>
        <path id="path38" fill="#fdffca" stroke="none" d="M 2023.281006 1607.147949 C 2020.421997 1604.926025 2017.317993 1604.417969 2014.041992 1603.035034 C 2010.985962 1601.744995 2008.133057 1600.006958 2005.430054 1598.098022 C 2001.348022 1595.213989 1996.879028 1601.457031 2000.209961 1604.864014 C 2004.852051 1609.612061 2012.392944 1616.515015 2019.400024 1616.517944 C 2023.728027 1616.519043 2027.204956 1610.197021 2023.281006 1607.147949 Z"/>
        <path id="path39" fill="#fdffca" stroke="none" d="M 2034.927979 1580.776001 C 2032.050049 1579.589966 2029.275024 1580.383057 2026.277954 1580.317017 C 2023.516968 1580.255981 2020.936035 1579.588013 2018.359985 1578.621948 C 2013.069946 1576.639038 2009.607056 1585.081055 2014.530029 1587.707031 C 2020.918945 1591.11499 2031.037964 1594.47998 2037.120972 1589.083984 C 2040.219971 1586.334961 2038.093994 1582.081055 2034.927979 1580.776001 Z"/>
        <path id="path40" fill="#fdffca" stroke="none" d="M 2099.253906 1404.301025 C 2094.466064 1400.223022 2090.083008 1400.672974 2084.13501 1401.319946 C 2078.321045 1401.952026 2072.50708 1402.584961 2066.693115 1403.217041 C 2059.886963 1403.957031 2059.873047 1413.078979 2066.693115 1413.821045 C 2072.50708 1414.453003 2078.321045 1415.08606 2084.13501 1415.718018 C 2090.083008 1416.36499 2094.466064 1416.813965 2099.253906 1412.735962 C 2101.573975 1410.760986 2101.568115 1406.270996 2099.253906 1404.301025 Z"/>
        <path id="path41" fill="#fdffca" stroke="none" d="M 2082.273926 1362.651001 C 2076.329102 1361.810059 2071.558105 1364.282959 2066.008057 1366.290039 C 2060.239014 1368.375977 2054.469971 1370.462036 2048.701904 1372.547974 C 2042.370972 1374.838013 2044.823975 1384.542969 2051.520996 1382.772949 C 2057.434082 1381.209961 2063.346924 1379.647949 2069.260986 1378.084961 C 2074.74707 1376.635986 2080.509033 1376.022949 2084.760986 1372.06604 C 2087.600098 1369.422974 2086.523926 1363.251953 2082.273926 1362.651001 Z"/>
        <path id="path42" fill="#648400" stroke="none" d="M 2030.66394 1068.983032 C 2037.746948 1062.185059 2030.100952 1052.849976 2021.958984 1054.029053 C 2002.246948 1056.884033 1988.78894 1065.39502 1977.000977 1081.345947 C 1964.608032 1098.115967 1956.574951 1118.610962 1953.889038 1139.259033 C 1950.218994 1167.469971 1944.380981 1235.23999 1987.631958 1234.042969 C 1992.454956 1233.909058 1996.594971 1230.052002 1996.578979 1225.095947 C 1996.560059 1219.128052 1997.932983 1213.542969 1997.04895 1207.56897 C 1996.129028 1201.357056 1993.807983 1195.66394 1993.228027 1189.353027 C 1991.875977 1174.640015 1992.485962 1159.368042 1994.213013 1144.720947 C 1997.60498 1115.969971 2009.557983 1089.243042 2030.66394 1068.983032 Z"/>
        <path id="path43" fill="#648400" stroke="none" d="M 2061.870117 1160.162964 C 2062.832031 1162.588989 2061.888916 1160.292969 2061.575928 1159.040039 C 2061.509033 1158.771973 2061.451904 1158.620972 2061.4021 1158.540039 C 2061.418945 1158.36499 2061.436035 1158.186035 2061.454102 1157.962036 C 2061.542969 1156.88501 2061.684082 1155.659058 2061.655029 1154.583008 C 2061.745117 1152.209961 2061.25708 1149.994019 2060.219971 1147.927979 C 2060.681885 1147.18103 2061.426025 1146.177979 2061.496094 1146.078003 C 2066.858887 1138.391968 2057.917969 1126.957031 2049.146973 1130.014038 C 2037.213989 1134.17395 2026.208008 1143.047974 2025.583008 1157.114014 C 2024.911987 1172.21106 2032.285034 1188.060059 2048.988037 1189.019043 C 2058.134033 1189.543945 2063.573975 1181.39502 2064.565918 1173.44104 C 2065.158936 1168.697998 2063.584961 1164.485962 2061.870117 1160.162964 Z"/>
        <path id="path44" fill="#648400" stroke="none" d="M 2071.925049 1206.06897 C 2063.822998 1206.06897 2063.809082 1218.661011 2071.925049 1218.661011 C 2080.0271 1218.661011 2080.041016 1206.06897 2071.925049 1206.06897 Z"/>
        <path id="path45" fill="#648400" stroke="none" d="M 1331.411011 1447.572021 C 1328.762939 1439.463013 1320.436035 1435.805054 1312.675049 1432.073975 C 1305.652954 1428.698975 1297.973022 1424.061035 1292.020996 1419.031982 C 1279.081055 1408.097046 1259.540039 1421.640991 1268.081055 1437.504028 C 1270.485962 1441.969971 1273.214966 1446.009033 1276.31897 1449.662964 C 1275.504028 1449.665039 1274.67395 1449.699951 1273.800049 1449.813965 C 1267.561035 1450.625977 1264.151001 1457.187988 1268.64502 1462.259033 C 1270.416992 1464.26001 1272.052979 1465.964966 1274.462036 1467.167969 C 1276.817017 1468.343994 1279.442993 1469.178955 1281.889038 1470.152954 C 1287.527954 1472.399048 1291.68396 1474.07605 1297.598022 1471.338013 C 1299.515015 1470.449951 1300.584961 1468.828979 1301.057983 1467 C 1310.097046 1470.391968 1320.526001 1471.592041 1327.25 1464.727051 C 1333.837036 1461.741943 1334.427979 1453.267944 1331.411011 1447.572021 Z"/>
        <path id="path46" fill="#648400" stroke="none" d="M 2061.12793 1273.916016 C 2058.687988 1275.699951 2055.961914 1277.233032 2053.9729 1279.517944 C 2052.000977 1281.781982 2050.462891 1284.412964 2048.470947 1286.687012 C 2044.43103 1291.300049 2040.348022 1295.987061 2036.116943 1300.427002 C 2030.967041 1305.831055 2037.418945 1313.243042 2043.746948 1310.31604 C 2050.528076 1307.177979 2055.845947 1303.46106 2060.736084 1297.764038 C 2062.971924 1295.159058 2065.37793 1292.359009 2067.156982 1289.412964 C 2069.101074 1286.192993 2069.294922 1282.454956 2069.605957 1278.780029 C 2069.946045 1274.72998 2064.475098 1271.468994 2061.12793 1273.916016 Z"/>
        <path id="path47" fill="#648400" stroke="none" d="M 1251.142944 1640.215942 C 1248.407959 1634.495972 1240.069946 1631.390015 1234.157959 1633.303955 C 1228.35498 1635.182007 1222.343018 1641.144043 1223.115967 1647.807007 C 1223.883057 1654.426025 1224.889038 1660.438965 1228.603027 1666.142944 C 1230.470947 1669.011963 1232.453979 1671.902954 1235.165039 1673.996948 C 1238.791016 1676.79895 1242.984009 1677.671997 1247.479004 1678.011963 C 1254.86499 1678.569946 1260.509033 1671.453979 1260.787964 1664.703003 C 1261.18103 1655.192017 1255.034058 1648.35498 1251.142944 1640.215942 Z"/>
        <path id="path48" fill="#648400" stroke="none" d="M 931.195007 1866.82605 C 911.322021 1875.843994 889.572998 1882.437988 868.815979 1889.187988 C 846.59198 1896.415039 823.742981 1902.598999 801.107971 1908.39502 C 754.468994 1920.33606 706.70697 1929.936035 659.268982 1937.823975 C 652.481018 1938.953003 652.778992 1949.880981 659.268982 1951.244019 C 686.460022 1956.956055 710.478027 1957.703979 738.119995 1954.654053 C 763.455017 1951.858032 788.007996 1946.358032 812.55603 1939.574951 C 835.679016 1933.185059 858.109009 1925.562988 879.879028 1915.43103 C 902.817017 1904.755981 919.255005 1891.782959 935.208984 1872.031006 C 937.603027 1869.067993 934.702026 1865.234985 931.195007 1866.82605 Z"/>
        <path id="path49" fill="#648400" stroke="none" d="M 1014.408997 1825.281982 C 1011.424011 1825.281982 1011.419006 1829.921021 1014.408997 1829.921021 C 1017.393982 1829.921997 1017.398987 1825.281982 1014.408997 1825.281982 Z"/>
        <path id="path50" fill="#648400" stroke="none" d="M 1548.108032 1041.186035 C 1540.859009 1041.186035 1540.847046 1052.453003 1548.108032 1052.453003 C 1555.358032 1052.452026 1555.369995 1041.186035 1548.108032 1041.186035 Z"/>
        <path id="path51" fill="#648400" stroke="none" d="M 1333.145996 1023.557983 C 1325.469971 1023.557983 1325.457031 1035.487061 1333.145996 1035.487061 C 1340.822021 1035.488037 1340.834961 1023.557983 1333.145996 1023.557983 Z"/>
        <path id="path52" fill="#648400" stroke="none" d="M 1293.613037 768.249023 C 1288.06897 768.249023 1288.060059 776.86499 1293.613037 776.86499 C 1299.156982 776.86499 1299.166016 768.249023 1293.613037 768.249023 Z"/>
        <path id="path53" fill="#648400" stroke="none" d="M 1165.001953 827.042969 C 1164.099976 826.296997 1163.198975 825.552002 1162.296997 824.80603 C 1161.671021 824.289063 1161.029053 823.932007 1160.187988 823.932007 C 1159.457031 823.932007 1158.583008 824.25708 1158.078979 824.80603 C 1157.557007 825.374023 1157.170044 826.120972 1157.204956 826.915039 C 1157.241943 827.74707 1157.54895 828.384033 1158.078979 829.023926 C 1158.823975 829.926025 1159.569946 830.827026 1160.314941 831.729004 C 1160.82605 832.346924 1161.889038 832.699951 1162.657959 832.699951 C 1163.470947 832.699951 1164.44104 832.338989 1165.000977 831.729004 C 1165.581055 831.098022 1166.010986 830.268066 1165.972046 829.385986 C 1165.935059 828.55603 1165.668945 827.593994 1165.001953 827.042969 Z"/>
        <path id="path54" fill="#648400" stroke="none" d="M 1091.005005 889.167969 C 1088.446045 889.167969 1088.442017 893.144043 1091.005005 893.144043 C 1093.562988 893.14502 1093.567993 889.167969 1091.005005 889.167969 Z"/>
        <path id="path55" fill="#648400" stroke="none" d="M 1184.895996 954.223999 C 1180.204956 954.223999 1180.197021 961.513916 1184.895996 961.513916 C 1189.587036 961.513916 1189.594971 954.223999 1184.895996 954.223999 Z"/>
        <path id="path56" fill="#648400" stroke="none" d="M 1283.72998 860.18103 C 1282.024048 860.18103 1282.020996 862.832031 1283.72998 862.832031 C 1285.435059 862.832031 1285.437988 860.18103 1283.72998 860.18103 Z"/>
        <path id="path57" fill="#648400" stroke="none" d="M 1181.137939 811.255005 C 1180.285034 811.255005 1180.284058 812.581055 1181.137939 812.581055 C 1181.98999 812.581055 1181.991943 811.255005 1181.137939 811.255005 Z"/>
        <path id="path58" fill="#648400" stroke="none" d="M 1100.022949 781.897949 C 1096.185059 781.897949 1096.178955 787.863037 1100.022949 787.863037 C 1103.860962 787.862061 1103.868042 781.897949 1100.022949 781.897949 Z"/>
        <path id="path59" fill="#648400" stroke="none" d="M 1035.131958 889.386963 C 1030.44104 889.386963 1030.432983 896.677002 1035.131958 896.677002 C 1039.822021 896.677002 1039.829956 889.386963 1035.131958 889.386963 Z"/>
        <path id="path60" fill="#648400" stroke="none" d="M 1121.654053 977.565918 C 1119.094971 977.565918 1119.090942 981.542969 1121.654053 981.542969 C 1124.212036 981.542969 1124.217041 977.565918 1121.654053 977.565918 Z"/>
        <path id="path61" fill="#648400" stroke="none" d="M 1202.767944 1078.655029 C 1198.077026 1078.655029 1198.06897 1085.944946 1202.767944 1085.944946 C 1207.458984 1085.944946 1207.467041 1078.655029 1202.767944 1078.655029 Z"/>
        <path id="path62" fill="#648400" stroke="none" d="M 1327.144043 1143.876953 C 1322.880005 1143.876953 1322.873047 1150.504028 1327.144043 1150.504028 C 1331.407959 1150.505005 1331.415039 1143.876953 1327.144043 1143.876953 Z"/>
        <path id="path63" fill="#648400" stroke="none" d="M 1419.072998 1237.795044 C 1417.366943 1237.795044 1417.36499 1240.446045 1419.072998 1240.446045 C 1420.779053 1240.446045 1420.781982 1237.795044 1419.072998 1237.795044 Z"/>
        <path id="path64" fill="#648400" stroke="none" d="M 1559.671997 1185.150024 C 1552.848999 1185.150024 1552.838013 1195.754028 1559.671997 1195.754028 C 1566.494995 1195.754028 1566.505981 1185.150024 1559.671997 1185.150024 Z"/>
        <path id="path65" fill="#648400" stroke="none" d="M 1440.703979 1310.188965 C 1434.734009 1310.188965 1434.723999 1319.467041 1440.703979 1319.467041 C 1446.67395 1319.467041 1446.68396 1310.188965 1440.703979 1310.188965 Z"/>
        <path id="path66" fill="#648400" stroke="none" d="M 1360.189941 1376.207031 C 1359.347046 1374.651978 1358.602051 1372.824951 1357.354004 1371.555054 C 1355.665039 1369.838013 1352.70105 1369.834961 1351.01001 1371.555054 C 1349.756958 1372.828003 1349.017944 1374.646973 1348.172974 1376.207031 C 1345.682007 1380.803955 1348.777954 1386.677979 1354.182007 1386.677979 C 1359.58606 1386.677979 1362.68103 1380.803955 1360.189941 1376.207031 Z"/>
        <path id="path67" fill="#648400" stroke="none" d="M 1310.921021 1251.698975 C 1306.22998 1251.698975 1306.222046 1258.989014 1310.921021 1258.989014 C 1315.610962 1258.989014 1315.619019 1251.698975 1310.921021 1251.698975 Z"/>
        <path id="path68" fill="#648400" stroke="none" d="M 1413.666016 1393.953979 C 1410.061035 1393.733032 1406.456055 1393.511963 1402.850952 1393.291016 C 1399.439941 1393.082031 1399.43396 1398.802002 1402.850952 1398.593018 C 1406.456055 1398.371948 1410.061035 1398.151001 1413.666016 1397.930054 C 1416.222046 1397.774048 1416.225952 1394.110962 1413.666016 1393.953979 Z"/>
        <path id="path69" fill="#648400" stroke="none" d="M 1575.89502 1357.947998 C 1575.713013 1357.947998 1575.713013 1358.22998 1575.89502 1358.22998 C 1576.077026 1358.22998 1576.077026 1357.947998 1575.89502 1357.947998 Z"/>
        <path id="path70" fill="#648400" stroke="none" d="M 1628.078003 1205.706055 C 1627.438965 1202.276978 1626.800049 1198.848022 1626.161011 1195.418945 C 1625.865967 1193.838013 1623.26001 1193.837036 1622.965942 1195.418945 C 1622.327026 1198.848022 1621.687988 1202.276978 1621.04895 1205.706055 C 1619.953003 1211.583008 1629.180054 1211.619995 1628.078003 1205.706055 Z"/>
        <path id="path71" fill="#648400" stroke="none" d="M 1456.927002 1004.272949 C 1453.942017 1004.272949 1453.937012 1008.911987 1456.927002 1008.911987 C 1459.911987 1008.911987 1459.916992 1004.272949 1456.927002 1004.272949 Z"/>
        <path id="path72" fill="#648400" stroke="none" d="M 1451.519043 1122.910034 C 1449.715942 1122.800049 1447.91394 1122.688965 1446.110962 1122.578979 C 1442.274048 1122.343994 1442.266968 1128.779053 1446.110962 1128.543945 C 1447.912964 1128.43396 1449.715942 1128.322998 1451.519043 1128.213013 C 1454.927002 1128.003052 1454.932983 1123.119019 1451.519043 1122.910034 Z"/>
        <path id="path73" fill="#648400" stroke="none" d="M 1435.296021 907.929932 C 1433.589966 907.929932 1433.588013 910.581055 1435.296021 910.581055 C 1437.001953 910.581055 1437.005005 907.929932 1435.296021 907.929932 Z"/>
        <path id="path74" fill="#648400" stroke="none" d="M 1440.703979 769.093994 C 1434.307007 769.093994 1434.296997 779.034912 1440.703979 779.034912 C 1447.099976 779.034912 1447.110962 769.093994 1440.703979 769.093994 Z"/>
        <path id="path75" fill="#648400" stroke="none" d="M 1327.144043 834.317017 C 1321.17395 834.317017 1321.16394 843.594971 1327.144043 843.594971 C 1333.114014 843.594971 1333.124023 834.317017 1327.144043 834.317017 Z"/>
        <path id="path76" fill="#648400" stroke="none" d="M 1429.889038 926.908936 C 1424.771973 926.908936 1424.762939 934.862061 1429.889038 934.862061 C 1435.005981 934.862061 1435.014038 926.908936 1429.889038 926.908936 Z"/>
        <path id="path77" fill="#648400" stroke="none" d="M 1759.754028 1014.093994 C 1755.489014 1014.093994 1755.482056 1020.720947 1759.754028 1020.720947 C 1764.017944 1020.721924 1764.026001 1014.093994 1759.754028 1014.093994 Z"/>
        <path id="path78" fill="#648400" stroke="none" d="M 1873.313965 997.870972 C 1869.050049 997.870972 1869.042969 1004.498047 1873.313965 1004.498047 C 1877.578979 1004.499023 1877.58606 997.870972 1873.313965 997.870972 Z"/>
        <path id="path79" fill="#648400" stroke="none" d="M 1894.944946 906.272949 C 1891.107056 906.272949 1891.100952 912.238037 1894.944946 912.238037 C 1898.782959 912.238037 1898.78894 906.272949 1894.944946 906.272949 Z"/>
        <path id="path80" fill="#648400" stroke="none" d="M 1959.83606 1058.017944 C 1956.425049 1058.017944 1956.418945 1063.319946 1959.83606 1063.319946 C 1963.248047 1063.319946 1963.254028 1058.017944 1959.83606 1058.017944 Z"/>
        <path id="path81" fill="#648400" stroke="none" d="M 1873.313965 1194.640015 C 1864.785034 1194.640015 1864.770996 1207.89502 1873.313965 1207.89502 C 1881.843018 1207.89502 1881.857056 1194.640015 1873.313965 1194.640015 Z"/>
        <path id="path82" fill="#648400" stroke="none" d="M 1694.863037 1214.281982 C 1683.775024 1214.281982 1683.756958 1231.512939 1694.863037 1231.512939 C 1705.949951 1231.514038 1705.968018 1214.281982 1694.863037 1214.281982 Z"/>
        <path id="path83" fill="#648400" stroke="none" d="M 1743.531006 1027.666016 C 1735.85498 1027.666016 1735.842041 1039.594971 1743.531006 1039.594971 C 1751.207031 1039.595947 1751.219971 1027.666016 1743.531006 1027.666016 Z"/>
        <path id="path84" fill="#648400" stroke="none" d="M 1867.906982 1103.78894 C 1867.724976 1103.78894 1867.724976 1104.072021 1867.906982 1104.072021 C 1868.088989 1104.072021 1868.088989 1103.78894 1867.906982 1103.78894 Z"/>
        <path id="path85" fill="#648400" stroke="none" d="M 1808.422974 1266.265015 C 1801.599976 1266.265015 1801.588013 1276.869019 1808.422974 1276.869019 C 1815.245972 1276.868042 1815.256958 1266.265015 1808.422974 1266.265015 Z"/>
        <path id="path86" fill="#648400" stroke="none" d="M 1949.020996 1251.036011 C 1943.477051 1251.036011 1943.468018 1259.651978 1949.020996 1259.651978 C 1954.564941 1259.651978 1954.573975 1251.036011 1949.020996 1251.036011 Z"/>
        <path id="path87" fill="#648400" stroke="none" d="M 1797.608032 1314.270996 C 1789.932007 1314.270996 1789.918945 1326.199951 1797.608032 1326.199951 C 1805.282959 1326.199951 1805.296021 1314.270996 1797.608032 1314.270996 Z"/>
        <path id="path88" fill="#648400" stroke="none" d="M 1667.823975 1293.965942 C 1661.854004 1293.965942 1661.843994 1303.244019 1667.823975 1303.244019 C 1673.795044 1303.244019 1673.803955 1293.965942 1667.823975 1293.965942 Z"/>
        <path id="path89" fill="#648400" stroke="none" d="M 1581.302002 1374.170044 C 1581.119995 1374.170044 1581.119995 1374.453003 1581.302002 1374.453003 C 1581.484009 1374.453003 1581.484009 1374.170044 1581.302002 1374.170044 Z"/>
        <path id="path90" fill="#648400" stroke="none" d="M 1451.519043 1309.526001 C 1444.696045 1309.526001 1444.685059 1320.130005 1451.519043 1320.130005 C 1458.342041 1320.130005 1458.354004 1309.526001 1451.519043 1309.526001 Z"/>
        <path id="path91" fill="#648400" stroke="none" d="M 1473.150024 1204.792969 C 1463.767944 1204.792969 1463.753052 1219.373047 1473.150024 1219.373047 C 1482.531006 1219.373047 1482.546997 1204.792969 1473.150024 1204.792969 Z"/>
        <path id="path92" fill="#648400" stroke="none" d="M 1570.487061 973.590088 C 1562.811035 973.590088 1562.797974 985.519043 1570.487061 985.519043 C 1578.162964 985.519043 1578.176025 973.590088 1570.487061 973.590088 Z"/>
        <path id="path93" fill="#648400" stroke="none" d="M 1765.161987 950.859985 C 1763.030029 950.859985 1763.026001 954.174072 1765.161987 954.174072 C 1767.293945 954.172974 1767.296997 950.859985 1765.161987 950.859985 Z"/>
        <path id="path94" fill="#648400" stroke="none" d="M 1716.493042 877.908936 C 1710.948975 877.908936 1710.939941 886.525024 1716.493042 886.525024 C 1722.036987 886.525024 1722.046021 877.908936 1716.493042 877.908936 Z"/>
        <path id="path95" fill="#648400" stroke="none" d="M 1543.448975 766.336914 C 1540.463989 766.336914 1540.458984 770.976074 1543.448975 770.976074 C 1546.43396 770.977051 1546.438965 766.336914 1543.448975 766.336914 Z"/>
        <path id="path96" fill="#648400" stroke="none" d="M 1381.660034 756.244019 C 1379.974976 755.817993 1378.290039 755.39209 1376.60498 754.966064 C 1374.72998 754.491943 1372.829956 755.884033 1372.829956 757.842041 C 1372.829956 759.792969 1374.72998 761.192017 1376.60498 760.718018 C 1378.290039 760.291992 1379.974976 759.865967 1381.660034 759.439941 C 1383.238037 759.041016 1383.239014 756.643066 1381.660034 756.244019 Z"/>
        <path id="path97" fill="#648400" stroke="none" d="M 1548.855957 690.961914 C 1546.296997 690.961914 1546.292969 694.937988 1548.855957 694.937988 C 1551.415039 694.937988 1551.418945 690.961914 1548.855957 690.961914 Z"/>
        <path id="path98" fill="#648400" stroke="none" d="M 1581.302002 821.739014 C 1580.022949 821.739014 1580.020996 823.727051 1581.302002 823.727051 C 1582.582031 823.727051 1582.583984 821.739014 1581.302002 821.739014 Z"/>
        <path id="path99" fill="#648400" stroke="none" d="M 1667.823975 919.928955 C 1667.641968 919.928955 1667.641968 920.211914 1667.823975 920.211914 C 1668.005981 920.211914 1668.006958 919.928955 1667.823975 919.928955 Z"/>
        <path id="path100" fill="#648400" stroke="none" d="M 1733.421021 755.286011 C 1731.795044 754.646973 1730.167969 754.008057 1728.541992 753.369019 C 1725.677979 752.244019 1722.670044 755.06897 1722.670044 757.842041 C 1722.670044 760.625 1725.685059 763.437988 1728.541992 762.315918 C 1730.167969 761.677002 1731.795044 761.038086 1733.421021 760.398926 C 1735.922974 759.415039 1735.927979 756.270996 1733.421021 755.286011 Z"/>
        <path id="path101" fill="#648400" stroke="none" d="M 1824.645996 843.369995 C 1823.366943 843.369995 1823.36499 845.35791 1824.645996 845.35791 C 1825.925049 845.35791 1825.927002 843.369995 1824.645996 843.369995 Z"/>
        <path id="path102" fill="#648400" stroke="none" d="M 1916.574951 1006.450928 C 1916.392944 1006.450928 1916.392944 1006.734009 1916.574951 1006.734009 C 1916.756958 1006.734009 1916.758057 1006.450928 1916.574951 1006.450928 Z"/>
        <path id="path103" fill="#648400" stroke="none" d="M 1705.677979 963.437988 C 1698.85498 963.437988 1698.843994 974.041992 1705.677979 974.041992 C 1712.500977 974.041016 1712.511963 963.437988 1705.677979 963.437988 Z"/>
        <path id="path104" fill="#648400" stroke="none" d="M 1608.339966 847.226074 C 1598.10498 847.226074 1598.088013 863.13208 1608.339966 863.13208 C 1618.574951 863.13208 1618.592041 847.226074 1608.339966 847.226074 Z"/>
        <path id="path105" fill="#648400" stroke="none" d="M 1337.958984 977.341064 C 1328.151001 977.341064 1328.13501 992.583984 1337.958984 992.583984 C 1347.766968 992.583984 1347.782959 977.341064 1337.958984 977.341064 Z"/>
        <path id="path106" fill="#648400" stroke="none" d="M 1467.741943 978.99707 C 1460.06604 978.99707 1460.052979 990.926025 1467.741943 990.926025 C 1475.417969 990.927002 1475.43103 978.99707 1467.741943 978.99707 Z"/>
        <path id="path107" fill="#648400" stroke="none" d="M 1473.150024 1159.105957 C 1467.605957 1159.105957 1467.597046 1167.722046 1473.150024 1167.722046 C 1478.692993 1167.722046 1478.703003 1159.105957 1473.150024 1159.105957 Z"/>
        <path id="path108" fill="#648400" stroke="none" d="M 1191.953003 965.199951 C 1180.438965 965.199951 1180.420044 983.093994 1191.953003 983.093994 C 1203.467041 983.093994 1203.485962 965.199951 1191.953003 965.199951 Z"/>
        <path id="path109" fill="#648400" stroke="none" d="M 1100.022949 906.604004 C 1096.610962 906.604004 1096.605957 911.906006 1100.022949 911.906006 C 1103.435059 911.906006 1103.439941 906.604004 1100.022949 906.604004 Z"/>
        <path id="path110" fill="#648400" stroke="none" d="M 1089.208008 1634.314941 C 1082.811035 1634.314941 1082.801025 1644.255981 1089.208008 1644.255981 C 1095.604004 1644.255981 1095.61499 1634.314941 1089.208008 1634.314941 Z"/>
        <path id="path111" fill="#648400" stroke="none" d="M 986.463013 1758.027954 C 979.213013 1758.027954 979.200989 1769.293945 986.463013 1769.293945 C 993.711975 1769.293945 993.723999 1758.027954 986.463013 1758.027954 Z"/>
        <path id="path112" fill="#648400" stroke="none" d="M 1040.53894 1777.233032 C 1037.128052 1777.233032 1037.121948 1782.535034 1040.53894 1782.535034 C 1043.95105 1782.535034 1043.956055 1777.233032 1040.53894 1777.233032 Z"/>
        <path id="path113" fill="#648400" stroke="none" d="M 1094.61499 1645.462036 C 1088.64502 1645.462036 1088.63501 1654.73999 1094.61499 1654.73999 C 1100.58606 1654.73999 1100.595947 1645.462036 1094.61499 1645.462036 Z"/>
        <path id="path114" fill="#648400" stroke="none" d="M 1186.545044 1561.36499 C 1176.737061 1561.36499 1176.720947 1576.608032 1186.545044 1576.608032 C 1196.353027 1576.608032 1196.369995 1561.36499 1186.545044 1561.36499 Z"/>
        <path id="path115" fill="#648400" stroke="none" d="M 1051.354004 1753.282959 C 1048.947021 1753.282959 1047.444946 1754.69104 1046.848999 1756.447998 C 1040.939941 1758.114014 1035.030029 1759.780029 1029.120972 1761.446045 C 1026.645996 1762.144043 1027.686035 1765.82605 1030.177979 1765.280029 C 1035.988037 1764.009033 1041.79895 1762.738037 1047.609985 1761.467041 C 1048.406006 1762.505981 1049.64502 1763.223999 1051.35498 1763.223999 C 1057.750977 1763.223999 1057.761963 1753.282959 1051.354004 1753.282959 Z"/>
        <path id="path116" fill="#648400" stroke="none" d="M 1121.120972 1707.219971 C 1117.354004 1708.411011 1113.58606 1709.600952 1109.81897 1710.791992 C 1106.982056 1711.688965 1105.415039 1714.692993 1106.598022 1717.5 C 1107.64502 1719.984985 1111.204956 1721.680054 1113.649048 1719.876953 C 1116.905029 1717.474976 1120.161987 1715.072998 1123.418945 1712.671021 C 1125.94397 1710.80896 1124.599976 1706.119995 1121.120972 1707.219971 Z"/>
        <path id="path117" fill="#648400" stroke="none" d="M 851.271973 1801.725952 C 837.625977 1801.725952 837.603027 1822.93396 851.271973 1822.93396 C 864.91803 1822.932983 864.940979 1801.725952 851.271973 1801.725952 Z"/>
        <path id="path118" fill="#648400" stroke="none" d="M 674.676025 1886.18103 C 672.484009 1883.793945 669.145996 1882.938965 666.046997 1883.355957 C 663.155029 1883.744019 659.809021 1885.411987 658.541992 1888.26001 C 658.184021 1889.063965 657.822998 1889.865967 657.468994 1890.671997 C 656.875 1892.024048 656.40802 1893.360962 656.892029 1894.854004 C 657.073975 1895.417969 657.359009 1895.963013 657.598022 1896.506958 C 657.768005 1896.894043 657.940979 1897.279053 658.112976 1897.665039 C 658.655029 1898.883057 659.002991 1899.562988 660.14801 1900.708984 C 662.010986 1902.572021 664.778015 1903.718018 667.411987 1903.718018 C 670.195007 1903.718018 672.666016 1902.553955 674.676025 1900.708984 C 676.692993 1898.858032 677.565979 1896.102051 677.684998 1893.446045 C 677.807983 1890.708984 676.473022 1888.137939 674.676025 1886.18103 Z"/>
        <path id="path119" fill="#648400" stroke="none" d="M 483.553009 1860.442017 C 475.877014 1860.442017 475.864014 1872.370972 483.553009 1872.370972 C 491.229004 1872.370972 491.242004 1860.442017 483.553009 1860.442017 Z"/>
        <path id="path120" fill="#648400" stroke="none" d="M 705.265991 1890.235962 C 694.177979 1890.235962 694.159973 1907.467041 705.265991 1907.467041 C 716.354004 1907.468018 716.372009 1890.235962 705.265991 1890.235962 Z"/>
        <path id="path121" fill="#648400" stroke="none" d="M 813.419006 1886.484985 C 804.463989 1886.484985 804.448975 1900.402954 813.419006 1900.402954 C 822.374023 1900.402954 822.388977 1886.484985 813.419006 1886.484985 Z"/>
        <path id="path122" fill="#648400" stroke="none" d="M 1375.812012 1711.015991 C 1372.207031 1710.685059 1368.602051 1710.353027 1364.996948 1710.021973 C 1358.60498 1709.43396 1358.593018 1720.552002 1364.996948 1719.963013 C 1368.602051 1719.631958 1372.207031 1719.300049 1375.812012 1718.968994 C 1380.920044 1718.499023 1380.930054 1711.487061 1375.812012 1711.015991 Z"/>
        <path id="path123" fill="#648400" stroke="none" d="M 1446.728027 1799.277954 C 1445.042969 1798.852051 1443.358032 1798.426025 1441.672974 1798 C 1439.380981 1797.421021 1437.05896 1799.120972 1437.05896 1801.515015 C 1437.05896 1803.900024 1439.380981 1805.609009 1441.672974 1805.030029 C 1443.358032 1804.604004 1445.042969 1804.177979 1446.728027 1803.750977 C 1448.937012 1803.192993 1448.938965 1799.837036 1446.728027 1799.277954 Z"/>
        <path id="path124" fill="#648400" stroke="none" d="M 1392.035034 1774.250977 C 1384.785034 1774.250977 1384.774048 1785.517944 1392.035034 1785.517944 C 1399.285034 1785.516968 1399.296997 1774.250977 1392.035034 1774.250977 Z"/>
        <path id="path125" fill="#648400" stroke="none" d="M 1267.660034 1624.161987 C 1262.115967 1624.161987 1262.107056 1632.777954 1267.660034 1632.777954 C 1273.203003 1632.777954 1273.213013 1624.161987 1267.660034 1624.161987 Z"/>
        <path id="path126" fill="#648400" stroke="none" d="M 1467.741943 1815.85498 C 1458.359985 1815.85498 1458.344971 1830.435059 1467.741943 1830.435059 C 1477.124023 1830.435059 1477.139038 1815.85498 1467.741943 1815.85498 Z"/>
        <path id="path127" fill="#648400" stroke="none" d="M 1321.735962 1306.542969 C 1311.074951 1306.542969 1311.057007 1323.112061 1321.735962 1323.112061 C 1332.396973 1323.112061 1332.415039 1306.542969 1321.735962 1306.542969 Z"/>
        <path id="path128" fill="#648400" stroke="none" d="M 1500.187988 1181.837036 C 1489.100952 1181.837036 1489.082031 1199.067993 1500.187988 1199.067993 C 1511.275024 1199.067993 1511.293945 1181.837036 1500.187988 1181.837036 Z"/>
        <path id="path129" fill="#648400" stroke="none" d="M 1673.232056 1264.608032 C 1664.276978 1264.608032 1664.261963 1278.525024 1673.232056 1278.525024 C 1682.187012 1278.525024 1682.202026 1264.608032 1673.232056 1264.608032 Z"/>
        <path id="path130" fill="#7c3537" stroke="none" d="M 1250.493042 1485.651978 C 1247.739014 1492.26001 1244.609009 1499.012939 1243.483032 1506.109985 C 1242.250977 1513.879028 1241.295044 1521.70105 1240.661987 1529.541016 C 1239.494019 1543.98999 1239.432007 1558.43103 1240.68396 1572.873047 C 1243.21106 1602.036987 1249.480957 1630.832031 1259.328003 1658.397949 C 1278.551025 1712.213013 1312.937012 1760.677979 1353.027954 1800.968994 C 1432.863037 1881.203979 1539.45105 1934.567017 1649.831055 1957.345947 C 1705.630005 1968.862061 1762.881958 1972.637939 1819.692993 1968.177002 C 1848.780029 1965.892944 1877.984009 1961.906982 1906.275024 1954.68396 C 1937.69397 1946.662964 1968.411987 1936.156006 1998.79895 1924.89502 C 2052.355957 1905.04895 2106.587891 1884.293945 2150.870117 1847.14502 C 2195.596924 1809.621948 2224.814941 1758.031982 2252.068115 1707.327026 C 2266.303955 1680.840942 2280.974121 1654.167969 2290.330078 1625.474976 C 2300.069092 1595.609009 2302.600098 1563.253052 2299.944092 1532.043945 C 2297.172119 1499.474976 2292.316895 1467.110962 2286.894043 1434.890991 C 2284.243896 1419.151978 2281.227051 1403.474976 2277.845947 1387.875977 C 2274.479004 1372.344971 2271.285889 1356.501953 2266.295898 1341.401001 C 2261.270996 1326.192017 2255.876953 1311.110962 2250.165039 1296.146973 C 2248.815918 1292.613037 2243.528076 1293.926025 2244.413086 1297.733032 C 2248.037109 1313.322998 2251.327881 1328.987061 2254.237061 1344.725952 C 2257.073975 1360.074951 2261.049072 1375.223022 2264.090088 1390.541016 C 2270.180908 1421.229004 2274.88208 1452.103027 2277.565918 1483.277954 C 2278.900879 1498.781982 2279.924072 1514.323975 2280.490967 1529.875977 C 2281.070068 1545.751953 2281.852051 1561.675049 2280.898926 1577.552002 C 2279.103027 1607.487061 2269.621094 1635.790039 2256.833008 1662.72998 C 2244.541016 1688.625977 2231.084961 1714.165039 2217.064941 1739.166016 C 2203.388916 1763.553955 2188.447021 1787.61499 2169.999023 1808.723022 C 2133.157959 1850.875977 2082.571045 1876.615967 2030.838989 1895.812988 C 2002.975952 1906.152954 1974.011963 1914.240967 1945.255005 1921.677979 C 1916.610962 1929.08606 1887.488037 1934.900024 1858.197998 1939.10498 C 1804.396973 1946.829956 1749.501953 1946.161987 1695.660034 1939.264038 C 1588.802979 1925.573975 1483.80603 1882.084961 1400.907959 1812.894043 C 1359.484985 1778.319946 1323.448975 1737.131958 1297.93396 1689.411011 C 1271.362061 1639.713013 1256.069946 1584.060059 1256.134033 1527.567993 C 1256.140991 1521.010986 1256.370972 1514.454956 1256.833984 1507.91394 C 1257.337036 1500.800049 1256.462036 1493.583984 1256.348999 1486.44104 C 1256.295044 1482.850952 1251.725952 1482.694946 1250.493042 1485.651978 L 1250.493042 1485.651978 Z"/>
        <path id="path131" fill="#7c3537" stroke="none" d="M 1263.597046 1498.088013 C 1274.088013 1552.984985 1302.823975 1603.100952 1334.698975 1648.317017 C 1366.880981 1693.968994 1404.508057 1735.58606 1445.062012 1773.918945 C 1465.447021 1793.187988 1486.582031 1811.666016 1508.235962 1829.494995 C 1531.442017 1848.600952 1555.182007 1867.274048 1580.796021 1883.079956 C 1607.052979 1899.281982 1635.203979 1911.572998 1664.973022 1919.703003 C 1695.625 1928.073975 1727.284058 1932.732056 1758.834961 1936.125 C 1796.234985 1940.146973 1833.904053 1941.67395 1871.505981 1940.661011 C 1889.541992 1940.175049 1907.963989 1939.833008 1925.78894 1936.900024 C 1944.564941 1933.810059 1963.218994 1930.036011 1981.734985 1925.654053 C 1982.447998 1925.484985 1982.313965 1924.286011 1981.55896 1924.352051 C 1965.140015 1925.791992 1948.687012 1926.767944 1932.21106 1927.223999 C 1916.000977 1927.672974 1899.870972 1928.967041 1883.667969 1929.640015 C 1850.875977 1931.001953 1818.001953 1930.432007 1785.276001 1927.944946 C 1723.297974 1923.235962 1659.060059 1914.024048 1603.707031 1884.098999 C 1577.224976 1869.781982 1552.859009 1851.901978 1529.410034 1833.113037 C 1507.811035 1815.807007 1486.722046 1797.849976 1466.324951 1779.140015 C 1425.409058 1741.609009 1387.015991 1700.982056 1353.998047 1656.274048 C 1317.600952 1606.990967 1290.937012 1552.713989 1264.807007 1497.577026 C 1264.468018 1496.859009 1263.463989 1497.39502 1263.597046 1498.088013 L 1263.597046 1498.088013 Z"/>
        <path id="path132" fill="#7c3537" stroke="none" d="M 1262.858032 1486.088989 C 1265.864014 1486.573975 1269.062988 1487.480957 1272.112061 1487.54895 C 1275.524048 1487.625 1279.110962 1486.53894 1282.454956 1485.94397 C 1290.572021 1484.499023 1298.692993 1483.071045 1306.817017 1481.661011 C 1322.333984 1478.967041 1337.685059 1475.979004 1353.069946 1472.608032 C 1383.712036 1465.894043 1414.409058 1459.436035 1445.157959 1453.232056 C 1506.656006 1440.823975 1568.359009 1429.437012 1630.234985 1419.07605 C 1647.151978 1416.243042 1663.935059 1412.887939 1680.765991 1409.587036 C 1689.530029 1407.868042 1698.296997 1406.170044 1707.06897 1404.493042 C 1715.237061 1402.93103 1724.714966 1402.670044 1731.418945 1397.532959 C 1733.738037 1395.755981 1733.447998 1392.537964 1730.626953 1391.475952 C 1723.780029 1388.897949 1716.956055 1390.649048 1709.80603 1391.472046 C 1701.685059 1392.406982 1693.56604 1393.359009 1685.448975 1394.328979 C 1669.942993 1396.182007 1654.328003 1397.72998 1638.916016 1400.255005 C 1607.96106 1405.32605 1577.057007 1410.725952 1546.197021 1416.345947 C 1484.474976 1427.58606 1422.939941 1439.848999 1361.625 1453.130981 C 1344.821045 1456.770996 1328.06897 1460.359009 1311.516968 1465.024048 C 1302.899048 1467.453003 1294.286987 1469.902954 1285.680054 1472.373047 C 1281.391968 1473.604004 1276.985962 1474.640015 1272.771973 1476.093994 C 1268.828979 1477.454956 1265.744019 1480.037964 1262.383057 1482.454956 C 1261.166016 1483.329956 1260.996948 1485.787964 1262.858032 1486.088989 L 1262.858032 1486.088989 Z"/>
        <path id="path133" fill="#7c3537" stroke="none" d="M 1755.973022 1394.655029 C 1771.25 1392.779053 1786.709961 1391.465942 1801.807007 1388.446045 C 1816.740967 1385.458984 1831.675049 1382.472046 1846.609009 1379.484985 C 1877.597046 1373.286987 1908.584961 1367.088013 1939.572998 1360.890015 C 2000.781982 1348.646973 2062.208984 1337.178955 2123.238037 1324.067993 C 2140.345947 1320.392944 2157.454102 1316.717041 2174.561035 1313.041992 C 2183.11499 1311.203979 2191.668945 1309.366943 2200.2229 1307.529053 C 2209.003906 1305.642944 2217.861084 1304.290039 2226.092041 1300.644043 C 2232.352051 1297.869995 2228.879883 1288.302979 2222.74707 1288.293945 C 2215.197998 1288.282959 2207.9729 1290.241943 2200.606934 1291.776001 C 2192.410889 1293.483032 2184.215088 1295.189941 2176.019043 1296.895996 C 2161.116943 1299.999023 2146.215088 1303.103027 2131.312988 1306.206055 C 2100.784912 1312.563965 2070.385986 1319.531982 2039.95105 1326.322998 C 1979.088989 1339.902954 1918.228027 1353.483032 1857.365967 1367.062012 C 1840.295044 1370.870972 1823.223999 1374.680054 1806.152954 1378.489014 C 1789.05896 1382.302979 1772.459961 1387.607056 1755.708984 1392.703979 C 1754.689941 1393.012939 1754.81604 1394.797974 1755.973022 1394.655029 L 1755.973022 1394.655029 Z"/>
        <path id="path134" fill="#7c3537" stroke="none" d="M 397.553986 1155.987061 C 423.914001 1136.465942 450.299988 1116.947021 477.626007 1098.787964 C 504.949005 1080.630981 532.320984 1062.603027 561.682007 1047.854004 C 592.682983 1032.281006 625.414978 1020.751953 658.56897 1010.713013 C 691.541016 1000.728027 724.893982 991.859985 758.708984 985.209961 C 824.27002 972.315918 891.46698 968.218018 956.901978 983.984009 C 983.419983 990.373047 1009.370972 999.504028 1034.029053 1011.166992 C 1058.657959 1022.817017 1081.473022 1037.400024 1104.203003 1052.324951 C 1129.650024 1069.034058 1151.380981 1089.857056 1175.380005 1108.378052 C 1188.119019 1118.208984 1197.324951 1132.139038 1206.340942 1145.390015 C 1215.026001 1158.155029 1222.922974 1171.427002 1230.043945 1185.125 C 1231.222046 1187.391968 1234.692017 1185.378052 1233.477051 1183.118042 C 1220.000977 1158.043945 1203.468994 1135.873047 1185.853027 1113.650024 C 1182.134033 1108.958008 1179.540039 1103.267944 1176.186035 1098.27002 C 1172.06604 1092.129028 1167.842041 1086.425049 1162.750977 1081.052002 C 1152.936035 1070.692993 1142.583008 1060.843994 1131.75 1051.553955 C 1121.293945 1042.588013 1110.416016 1033.401001 1098.70105 1026.119995 C 1086.552979 1018.570068 1074.042969 1011.616943 1061.189941 1005.340088 C 1035.91394 992.995972 1009.440002 983.040039 982.14801 976.192017 C 918.732971 960.281982 851.648987 961.155029 787.344971 970.984009 C 752.182007 976.359009 717.497009 984.540039 683.273987 994.177002 C 649.56897 1003.667969 616.026001 1014.163086 583.802002 1027.946045 C 549.296997 1042.704956 515.770996 1061.598999 485.362 1083.619995 C 454.65799 1105.85498 425.718994 1130.530029 396.751007 1154.946045 C 396.183014 1155.425049 396.946991 1156.437012 397.553986 1155.987061 L 397.553986 1155.987061 Z"/>
        <path id="path135" fill="#7c3537" stroke="none" d="M 1254.660034 1282.312988 C 1257.139038 1290.000977 1259.987061 1298.005005 1261.359985 1305.982056 C 1262.771973 1314.180054 1261.79895 1323.131958 1261.781982 1331.418945 C 1261.749023 1347.728027 1263.94104 1363.936035 1263.642944 1380.30603 C 1263.493042 1388.540039 1262.512939 1396.719971 1262.258057 1404.932007 C 1262.005981 1413.046021 1263.366943 1421.338013 1263.531006 1429.488037 C 1263.864014 1446.004028 1263.765991 1462.885986 1261.557007 1479.265991 C 1261.291016 1481.23999 1264.203979 1483.08606 1265.19104 1480.797974 C 1271.802002 1465.472046 1278.030029 1450.244995 1282.175049 1434.046021 C 1284.406982 1425.324951 1287.227051 1415.987061 1287.859985 1406.983032 C 1288.45105 1398.56897 1287.338989 1389.704956 1286.545044 1381.332031 C 1284.956055 1364.56604 1283.379028 1346.088989 1277.08606 1330.355957 C 1274.019043 1322.687012 1270.215942 1315.500977 1266.540039 1308.123047 C 1262.407959 1299.829956 1260.088989 1290.390015 1256.57605 1281.786011 C 1256.108032 1280.63501 1254.256958 1281.063965 1254.660034 1282.312988 L 1254.660034 1282.312988 Z"/>
        <path id="path136" fill="#7c3537" stroke="none" d="M 312.807007 1232.097046 C 267.929993 1274.531006 230.061996 1323.500977 200.214996 1377.573975 C 184.785995 1405.526978 172.218994 1435.134033 166.397003 1466.656982 C 160.789001 1497.025024 160.755005 1528.161987 164.867996 1558.714966 C 172.615997 1616.265991 191.376007 1672.338989 221.656006 1721.97998 C 249.332001 1767.350952 284.306 1808.370972 324.404999 1843.220947 C 364.737 1878.272949 408.924011 1909.057007 457.755005 1931.041016 C 512.674988 1955.765015 572.406006 1972.578003 632.588989 1977.17395 C 694.853027 1981.928955 756.877014 1975.810059 817.661011 1961.949951 C 847.778015 1955.083008 877.258972 1945.834961 906.031006 1934.613037 C 932.810974 1924.167969 959.366028 1912.479004 983.625 1896.984009 C 1006.939026 1882.093018 1030.857056 1868.203003 1053.44104 1852.157959 C 1076.207031 1835.984009 1098.031982 1818.447021 1118.713013 1799.68103 C 1159.821045 1762.378052 1197.828979 1719.974976 1226.108032 1672.06604 C 1229.467041 1666.375 1232.928955 1660.680054 1235.972046 1654.811035 C 1239.239014 1648.510986 1241.269043 1641.529053 1243.541992 1634.822021 C 1245.027954 1630.438965 1238.868042 1626.963013 1235.787964 1630.307983 C 1231.363037 1635.114014 1226.483032 1639.656006 1222.514038 1644.850952 C 1218.105957 1650.620972 1214.004028 1656.63501 1209.630981 1662.435059 C 1201.602051 1673.083984 1193.102051 1683.348999 1185.119995 1694.031982 C 1169.060059 1715.526001 1151.541016 1735.791016 1133.286011 1755.437012 C 1096.751953 1794.753052 1055.55603 1829.80603 1010.661987 1859.22998 C 999.231018 1866.722046 987.788025 1873.555054 975.419006 1879.369995 C 963.408997 1885.015991 951.405029 1890.659058 939.383972 1896.282959 C 913.10498 1908.57605 885.934021 1918.762939 858.090027 1926.909058 C 800.416016 1943.781982 740.750977 1951.014038 680.695007 1949.527954 C 621.85498 1948.072021 563.145996 1939.035034 507.19101 1920.342041 C 458.902008 1904.209961 412.429993 1880.68103 370.311005 1851.487061 C 328.998993 1822.852051 292.188995 1786.30603 262.026001 1746.150024 C 246.410995 1725.362061 233.341995 1703.302979 220.416 1680.805054 C 206.281998 1656.206055 194.546997 1630.109009 185.690002 1603.157959 C 166.462006 1544.64502 163.987 1480.915039 185.285995 1422.593018 C 196.074005 1393.053955 211.514999 1365.212036 228.358994 1338.734009 C 244.804993 1312.880005 263.196014 1288.161987 283.205994 1264.958008 C 292.830994 1253.796021 302.875 1243.009033 313.273987 1232.563965 C 313.578003 1232.261963 313.117004 1231.803955 312.807007 1232.097046 L 312.807007 1232.097046 Z"/>
        <path id="path137" fill="#7c3537" stroke="none" d="M 948.156982 961.562988 C 953.252991 940.781982 961.039001 921.356934 968.689026 901.458008 C 975.767029 883.046997 984.758972 865.36499 995.172974 848.620972 C 1016.578003 814.203979 1044.06897 785.74292 1075.213013 760.091064 C 1107.142944 733.791016 1141.979004 712.146973 1179.926025 695.613037 C 1218.655029 678.738037 1259.692017 666.909912 1301.244995 659.463013 C 1404.302979 640.994019 1509.850952 655.335938 1611.411011 676.51001 C 1711.553955 697.388916 1808.767944 734.151001 1889.689941 797.973999 C 1925.928955 826.55603 1957.011963 860.640991 1983.60498 898.328979 C 1997.235962 917.646973 2009.551025 937.822998 2020.707031 958.663086 C 2026.151978 968.833984 2031.614014 978.973022 2036.609009 989.376953 C 2041.615967 999.807007 2045.755981 1010.439941 2051.978027 1020.197021 C 2058.092041 1029.784058 2063.910889 1039.500977 2069.63208 1049.32605 C 2072.560059 1054.35498 2082.10498 1052.614014 2081.364014 1046.147949 C 2079.980957 1034.072998 2078.077881 1022.119019 2075.663086 1010.210938 C 2073.118896 997.666992 2067.312988 986.163086 2061.788086 974.657959 C 2051.519043 953.275024 2039.661987 932.924072 2026.297974 913.328979 C 2012.526978 893.136963 1997.473999 873.760986 1981.310059 855.427979 C 1965.425049 837.411987 1948.092041 821.072021 1930.737061 804.518066 C 1895.828003 771.219971 1856.598022 742.334961 1814.271973 719.166016 C 1765.063965 692.22998 1711.328003 675.12207 1656.730957 662.934082 C 1598.995972 650.044922 1539.957031 642.255005 1481.186035 635.855957 C 1430.115967 630.294922 1379.005981 629.436035 1328.008057 636.084961 C 1241.45105 647.369995 1156.217041 677.291016 1084.225952 727.236084 C 1049.603027 751.255981 1019.43103 781.584961 994.835999 815.791016 C 982.953003 832.317017 972.547974 849.906982 963.888 868.330078 C 959.291016 878.10791 955.130005 888.111084 951.468018 898.276978 C 947.854004 908.312012 945.794983 919.064941 943.887024 929.544922 C 942.026001 939.765015 940.651001 950.072998 939.695984 960.416992 C 939.245972 965.286011 947.015991 966.218994 948.156982 961.562988 L 948.156982 961.562988 Z"/>
        <path id="path138" fill="#7c3537" stroke="none" d="M 2035.186035 1058.03894 C 2007.196045 1071.052979 1989.963013 1100.027954 1984.219971 1129.545044 C 1980.613037 1148.083008 1982.925049 1166.467041 1987.168945 1184.733032 C 1989.453003 1194.562988 1992.512939 1204.130005 1995.963989 1213.607056 C 1999.18396 1222.449951 2001.468018 1232.390991 2008.811035 1238.613037 C 2010.574951 1240.108032 2013.792969 1239.779053 2014.348999 1237.151001 C 2016.233032 1228.259033 2012.890015 1220.415039 2010.725952 1211.781006 C 2008.625 1203.396973 2006.776978 1194.942017 2005.142944 1186.454956 C 2001.900024 1169.602051 2001.177979 1152.42395 2001.847046 1135.296997 C 2002.926025 1107.698975 2014.834961 1079.406982 2038.864014 1064.334961 C 2042.900024 1061.802979 2039.390015 1056.083984 2035.186035 1058.03894 L 2035.186035 1058.03894 Z"/>
        <path id="path139" fill="#7c3537" stroke="none" d="M 2054.691895 1116.655029 C 2048.918945 1126.521973 2045.255005 1137.264038 2043.801025 1148.598022 C 2043.104004 1154.036011 2042.277954 1160.155029 2043.942993 1165.462036 C 2045.571045 1170.651001 2048.149902 1175.345947 2051.691895 1179.435059 C 2053.540039 1181.567993 2057.865967 1180.578003 2058.337891 1177.680054 C 2059.00293 1173.605957 2059.353027 1169.562012 2059.801025 1165.462036 C 2060.345947 1160.479004 2059.659912 1155.655029 2059.759033 1150.640991 C 2059.945068 1141.203003 2062.136963 1131.89502 2066.136963 1123.344971 C 2069.696045 1115.738037 2059.073975 1109.166992 2054.691895 1116.655029 L 2054.691895 1116.655029 Z"/>
        <path id="path140" fill="#7c3537" stroke="none" d="M 2082.279053 1121.745972 C 2091.475098 1132.250977 2100.654053 1142.771973 2109.86792 1153.26001 C 2115.974121 1160.21106 2126.812988 1168.607056 2124.476074 1179.098999 C 2122.706055 1187.045044 2113.906006 1193.890015 2106.052002 1194.93396 C 2095.083984 1196.391968 2084.614014 1190.391968 2077.256104 1182.766968 C 2072.678955 1178.024048 2063.825928 1184.402954 2067.887939 1189.994995 C 2076.49707 1201.848022 2088.964111 1210.654053 2103.842041 1212.05603 C 2119.063965 1213.48999 2133.637939 1205.542969 2139.990967 1191.517944 C 2146.836914 1176.406006 2141.39502 1161.829956 2130.358887 1150.44104 C 2117.836914 1137.517944 2102.670898 1126.676025 2088.839111 1115.186035 C 2084.269043 1111.387939 2078.301025 1117.202026 2082.279053 1121.745972 L 2082.279053 1121.745972 Z"/>
        <path id="path141" fill="#7c3537" stroke="none" d="M 2080.375 1058.776978 C 2080.887939 1065.31604 2081.400879 1071.85498 2081.914063 1078.392944 C 2082.430908 1084.977051 2084.730957 1090.463013 2087.059082 1096.623047 C 2087.969971 1099.032959 2092.324951 1099.849976 2092.811035 1096.623047 C 2093.738037 1090.468018 2095.085938 1084.581055 2094.26001 1078.392944 C 2093.386963 1071.854004 2092.513916 1065.314941 2091.641113 1058.776978 C 2090.711914 1051.80896 2079.795898 1051.396973 2080.375 1058.776978 L 2080.375 1058.776978 Z"/>
        <path id="path142" fill="#7c3537" stroke="none" d="M 2072.128906 1223.676025 C 2070.662109 1229.984985 2068.270996 1236.082031 2067.23291 1242.457031 C 2066.113037 1249.329956 2064.579102 1256.108032 2062.51001 1262.76001 C 2060.516113 1269.170044 2058.50708 1275.286987 2056.9021 1281.80896 C 2055.23999 1288.561035 2054.399902 1295.160034 2053.302979 1302.01001 C 2052.587891 1306.473999 2057.39209 1312.196045 2062.064941 1308.745972 C 2068.424072 1304.051025 2073.763916 1299.541016 2078.141113 1292.878052 C 2082.761963 1285.844971 2085.709961 1278.917969 2087.673096 1270.729004 C 2089.481934 1263.182007 2090.666992 1255.449951 2091.400879 1247.725952 C 2092.177979 1239.542969 2090.22998 1231.550049 2088.105957 1223.675049 C 2086.028076 1215.973022 2074.008057 1215.597046 2072.128906 1223.676025 L 2072.128906 1223.676025 Z"/>
        <path id="path143" fill="#7c3537" stroke="none" d="M 1223.954956 1672.488037 C 1233.199951 1676.206055 1247.430054 1685.296021 1257.18396 1679.322998 C 1260.266968 1677.435059 1260.927979 1673.843018 1259.442993 1670.708984 C 1254.685059 1660.671997 1237.343018 1660.35498 1227.831055 1658.428955 C 1218.468994 1656.531982 1215.353027 1669.027954 1223.954956 1672.488037 L 1223.954956 1672.488037 Z"/>
        <path id="path144" fill="#7c3537" stroke="none" d="M 251.565002 1739.569946 C 285.319 1765.932983 322.304993 1788.359985 361.911011 1804.75 C 401.875 1821.287964 443.903992 1832.936035 486.561005 1840.000977 C 572.164978 1854.178955 660.63501 1849.483032 743.265991 1822.464966 C 789.33197 1807.402954 833.633972 1786.858032 874.093018 1760.112061 C 877.632019 1757.771973 874.338013 1752.046997 870.747986 1754.389038 C 835.065002 1777.677002 796.382996 1796.755981 755.820984 1809.901978 C 715.43103 1822.991943 673.244019 1831.271973 631.026978 1835.616943 C 546.23999 1844.343994 459.660004 1834.116943 379.822998 1804.032959 C 335.121002 1787.188965 292.098999 1765.237061 253.171997 1737.488037 C 251.959 1736.624023 250.376999 1738.641968 251.565002 1739.569946 L 251.565002 1739.569946 Z"/>
        <path id="path145" fill="#7c3537" stroke="none" d="M 922.47699 1732.098022 C 941.91803 1724.098022 960.413025 1714.125977 977.934998 1702.515991 C 995.692993 1690.75 1011.258972 1675.884033 1026.291016 1660.859009 C 1041.594971 1645.562012 1056.119019 1629.506958 1070.374023 1613.234985 C 1086.177002 1595.196045 1101.937988 1577.266968 1118.171997 1559.614014 C 1126.993042 1550.021973 1135.723022 1540.345947 1144.358032 1530.58606 C 1152.494995 1521.387939 1164.168945 1511.552979 1167.526001 1499.38501 C 1168.314941 1496.526001 1165.166992 1494.290039 1162.657959 1495.642944 C 1153.137939 1500.775024 1147.305054 1511.349976 1140.901001 1519.708984 C 1133.628052 1529.202026 1126.265015 1538.625 1118.821045 1547.984985 C 1104.052979 1566.555054 1088.890991 1584.359009 1072.444946 1601.463989 C 1057.692993 1616.807007 1042.744019 1631.977051 1027.16394 1646.484985 C 1011.801025 1660.790039 995.395996 1673.464966 979.177002 1686.723022 C 960.669006 1701.853027 941.435974 1715.598022 920.179016 1726.646973 C 917.241028 1728.17395 919.315979 1733.399048 922.47699 1732.098022 L 922.47699 1732.098022 Z"/>
        <path id="path146" fill="#7c3537" stroke="none" d="M 1182.531982 1467.368042 C 1205.957031 1435.786011 1223.135986 1399.921997 1236.995972 1363.250977 C 1250.109985 1328.553955 1262.25 1289.10498 1247.383057 1253.040039 C 1245.651978 1248.839966 1238.991943 1250.339966 1240.353027 1254.978027 C 1250.954956 1291.109009 1239.595947 1328.699951 1226.656982 1362.589966 C 1213.151001 1397.967041 1196.612061 1431.998047 1180.814941 1466.364014 C 1180.276001 1467.537964 1181.77002 1468.395996 1182.531982 1467.368042 L 1182.531982 1467.368042 Z"/>
    </g>
</svg>
